<svg width="24" height="24" viewBox="0 0 24 24" fill="none" xmlns="http://www.w3.org/2000/svg">
<path d="M17.5 11C15.0128 11 13 13.0128 13 15.5C13 17.9872 15.0128 20 17.5 20C19.9872 20 22 17.9872 22 15.5C22 13.0128 19.9872 11 17.5 11ZM19.5 15.6966C19.5 15.8634 19.3634 16 19.1966 16H17.3038C17.1369 16 17.0003 15.8634 17.0003 15.6966V13.3038C17.0003 13.1369 17.1369 13.0003 17.3038 13.0003H17.6966C17.8634 13.0003 18 13.1369 18 13.3038V15H19.1966C19.3634 15 19.5 15.1366 19.5 15.3034V15.6966ZM17.5 10C17.6687 10 17.835 10.0103 18 10.0253V8.5C18 7.7 17.3 7 16.5 7H14V5.5C14 4.7 13.3 4 12.5 4H7.5C6.7 4 6 4.7 6 5.5V7H3.5C2.7 7 2 7.7 2 8.5V11H14.3475C15.2413 10.3722 16.3272 10 17.5 10ZM12 7H8V6H12V7ZM12.2131 14H8.5C8.22375 14 8 13.7762 8 13.5V12H2V16.5C2 17.3 2.7 18 3.5 18H12.6072C12.2219 17.2487 12 16.4006 12 15.5C12 14.9794 12.0775 14.4775 12.2131 14Z" fill="#FF674D"/>
</svg>
