<svg width="14" height="21" viewBox="0 0 14 21" fill="none" xmlns="http://www.w3.org/2000/svg">
<path fill-rule="evenodd" clip-rule="evenodd" d="M0 3.81818C0 1.70927 1.70927 0 3.81818 0H10.1818C12.2907 0 14 1.70927 14 3.81818C14 5.14564 13.3216 6.31655 12.2933 7C13.3216 7.68346 14 8.85436 14 10.1818C14 12.2907 12.2907 14 10.1818 14C9.20436 14 8.31091 13.6322 7.63636 13.0276V16.5455C7.63636 18.6544 5.92709 20.3636 3.81818 20.3636C1.70927 20.3636 0 18.6544 0 16.5455C0 15.2167 0.678363 14.0484 1.70673 13.3636C0.678363 12.6789 0 11.5105 0 10.1818C0 8.85436 0.678363 7.68346 1.70673 7C0.678363 6.31655 0 5.14564 0 3.81818ZM3.81818 6.36364C2.41182 6.36364 1.27273 5.22455 1.27273 3.81818C1.27273 2.41182 2.41182 1.27273 3.81818 1.27273H6.36364V6.36364H3.81818ZM6.36364 7.63636H3.81818C2.41182 7.63636 1.27273 8.77546 1.27273 10.1818C1.27273 11.5882 2.41182 12.7273 3.81818 12.7273H6.36364V7.63636ZM6.36364 14H3.81818C2.41182 14 1.27273 15.1391 1.27273 16.5455C1.27273 17.9518 2.41182 19.0909 3.81818 19.0909C5.22455 19.0909 6.36364 17.9518 6.36364 16.5455V14ZM10.1818 7.63636C8.77545 7.63636 7.63636 8.77546 7.63636 10.1818C7.63636 11.5882 8.77545 12.7273 10.1818 12.7273C11.5882 12.7273 12.7273 11.5882 12.7273 10.1818C12.7273 8.77546 11.5882 7.63636 10.1818 7.63636ZM10.1818 6.36364C11.5882 6.36364 12.7273 5.22455 12.7273 3.81818C12.7273 2.41182 11.5882 1.27273 10.1818 1.27273H7.63636V6.36364H10.1818Z"/>
</svg>
