<svg width="40" height="49" viewBox="0 0 40 49" fill="none" xmlns="http://www.w3.org/2000/svg">
<path d="M37.0166 4.0113V32.3313H28.1766V18.2113L23.8166 32.3313H16.2166L11.8566 18.2113V32.3313H2.97656V4.0113H13.8566L20.0966 21.0113L26.1766 4.0113H37.0166Z" fill="white"/>
<path d="M37.2143 15.68V33.96C37.2143 37.3467 36.321 39.92 34.5343 41.68C32.7743 43.4133 30.2943 44.28 27.0943 44.28C23.6543 44.28 20.921 43.3333 18.8943 41.44C16.8676 39.5467 15.8543 36.7867 15.8543 33.16H24.6143C24.6143 34.3067 24.801 35.12 25.1743 35.6C25.5476 36.0533 26.0543 36.28 26.6943 36.28C27.2276 36.28 27.641 36.1067 27.9343 35.76C28.2276 35.4133 28.3743 34.8133 28.3743 33.96V15.68H37.2143Z" fill="white"/>
<path d="M37.2143 15.68H38.2143C38.2143 15.1277 37.7666 14.68 37.2143 14.68V15.68ZM34.5343 41.68L35.236 42.3925L35.2361 42.3924L34.5343 41.68ZM18.8943 41.44L19.577 40.7093L19.577 40.7093L18.8943 41.44ZM15.8543 33.16V32.16C15.302 32.16 14.8543 32.6077 14.8543 33.16H15.8543ZM24.6143 33.16H25.6143C25.6143 32.6077 25.1666 32.16 24.6143 32.16V33.16ZM25.1743 35.6L24.3849 36.2139C24.3907 36.2213 24.3965 36.2285 24.4024 36.2357L25.1743 35.6ZM27.9343 35.76L27.1709 35.1141L27.1709 35.1141L27.9343 35.76ZM28.3743 15.68V14.68C27.822 14.68 27.3743 15.1277 27.3743 15.68H28.3743ZM36.2143 15.68V33.96H38.2143V15.68H36.2143ZM36.2143 33.96C36.2143 37.1756 35.369 39.454 33.8325 40.9676L35.2361 42.3924C37.2729 40.386 38.2143 37.5178 38.2143 33.96H36.2143ZM33.8326 40.9675C32.3103 42.4668 30.1125 43.28 27.0943 43.28V45.28C30.4761 45.28 33.2383 44.3599 35.236 42.3925L33.8326 40.9675ZM27.0943 43.28C23.8439 43.28 21.3765 42.3904 19.577 40.7093L18.2116 42.1707C20.4654 44.2762 23.4647 45.28 27.0943 45.28V43.28ZM19.577 40.7093C17.81 39.0586 16.8543 36.5993 16.8543 33.16H14.8543C14.8543 36.9741 15.9252 40.0348 18.2116 42.1707L19.577 40.7093ZM15.8543 34.16H24.6143V32.16H15.8543V34.16ZM23.6143 33.16C23.6143 34.3588 23.7983 35.4597 24.3849 36.2139L25.9637 34.9861C25.8036 34.7803 25.6143 34.2545 25.6143 33.16H23.6143ZM24.4024 36.2357C24.9843 36.9423 25.786 37.28 26.6943 37.28V35.28C26.3226 35.28 26.111 35.1644 25.9462 34.9643L24.4024 36.2357ZM26.6943 37.28C27.4649 37.28 28.1805 37.0172 28.6977 36.4059L27.1709 35.1141C27.1015 35.1961 26.9903 35.28 26.6943 35.28V37.28ZM28.6977 36.4059C29.2302 35.7766 29.3743 34.868 29.3743 33.96H27.3743C27.3743 34.7587 27.225 35.0501 27.1709 35.1141L28.6977 36.4059ZM29.3743 33.96V15.68H27.3743V33.96H29.3743ZM28.3743 16.68H37.2143V14.68H28.3743V16.68Z" fill="#EA4187"/>
</svg>
