<svg width="24" height="24" viewBox="0 0 24 24" fill="none" xmlns="http://www.w3.org/2000/svg">
<path d="M17.56 17.97H6.44C2.46 17.97 1.25 16.76 1.25 12.78V6.44C1.25 2.46 2.46 1.25 6.44 1.25H17.55C21.53 1.25 22.74 2.46 22.74 6.44V12.77C22.75 16.76 21.54 17.97 17.56 17.97ZM6.44 2.75C3.3 2.75 2.75 3.3 2.75 6.44V12.77C2.75 15.91 3.3 16.46 6.44 16.46H17.55C20.69 16.46 21.24 15.91 21.24 12.77V6.44C21.24 3.3 20.69 2.75 17.55 2.75H6.44Z" fill="#292D32"/>
<path d="M10.53 10.5C10.34 10.5 10.15 10.43 10 10.28L8 8.28003C7.71 7.99003 7.71 7.50997 8 7.21997L10 5.21997C10.29 4.92997 10.77 4.92997 11.06 5.21997C11.35 5.50997 11.35 5.99003 11.06 6.28003L9.59 7.75L11.06 9.21997C11.35 9.50997 11.35 9.99003 11.06 10.28C10.91 10.43 10.72 10.5 10.53 10.5Z" fill="#292D32"/>
<path d="M13.53 10.5C13.34 10.5 13.15 10.43 13 10.28C12.71 9.99003 12.71 9.50997 13 9.21997L14.47 7.75L13 6.28003C12.71 5.99003 12.71 5.50997 13 5.21997C13.29 4.92997 13.77 4.92997 14.06 5.21997L16.06 7.21997C16.35 7.50997 16.35 7.99003 16.06 8.28003L14.06 10.28C13.91 10.43 13.72 10.5 13.53 10.5Z" fill="#292D32"/>
<path d="M12 22.75C11.59 22.75 11.25 22.41 11.25 22V17.22C11.25 16.81 11.59 16.47 12 16.47C12.41 16.47 12.75 16.81 12.75 17.22V22C12.75 22.41 12.41 22.75 12 22.75Z" fill="#292D32"/>
<path d="M22 13.75H2C1.59 13.75 1.25 13.41 1.25 13C1.25 12.59 1.59 12.25 2 12.25H22C22.41 12.25 22.75 12.59 22.75 13C22.75 13.41 22.41 13.75 22 13.75Z" fill="#292D32"/>
<path d="M16.5 22.75H7.5C7.09 22.75 6.75 22.41 6.75 22C6.75 21.59 7.09 21.25 7.5 21.25H16.5C16.91 21.25 17.25 21.59 17.25 22C17.25 22.41 16.91 22.75 16.5 22.75Z" fill="#292D32"/>
</svg>
