<svg width="20" height="16" viewBox="0 0 20 16" fill="none" xmlns="http://www.w3.org/2000/svg">
<g clip-path="url(#clip0_1011_447)">
<path d="M12.275 0.0374825C11.7437 -0.115643 11.1906 0.193733 11.0375 0.724983L7.03745 14.725C6.88433 15.2562 7.1937 15.8094 7.72495 15.9625C8.2562 16.1156 8.80933 15.8062 8.96245 15.275L12.9625 1.27498C13.1156 0.743732 12.8062 0.190607 12.275 0.0374825ZM14.7937 3.79061C14.4031 4.18123 14.4031 4.81561 14.7937 5.20623L17.5843 7.99998L14.7906 10.7937C14.4 11.1844 14.4 11.8187 14.7906 12.2094C15.1812 12.6 15.8156 12.6 16.2062 12.2094L19.7062 8.70936C20.0968 8.31873 20.0968 7.68436 19.7062 7.29373L16.2062 3.79373C15.8156 3.40311 15.1812 3.40311 14.7906 3.79373L14.7937 3.79061ZM5.20933 3.79061C4.8187 3.39998 4.18433 3.39998 3.7937 3.79061L0.293701 7.29061C-0.0969238 7.68123 -0.0969238 8.31561 0.293701 8.70623L3.7937 12.2062C4.18433 12.5969 4.8187 12.5969 5.20933 12.2062C5.59995 11.8156 5.59995 11.1812 5.20933 10.7906L2.41558 7.99998L5.20933 5.20623C5.59995 4.81561 5.59995 4.18123 5.20933 3.79061Z" fill="white"/>
</g>
<defs>
<clipPath id="clip0_1011_447">
<rect width="20" height="16" fill="white"/>
</clipPath>
</defs>
</svg>
