<svg width="30" height="30" viewBox="0 0 30 30" fill="none" xmlns="http://www.w3.org/2000/svg">
<path d="M21.0671 9.54599C21.0623 9.53672 21.0544 9.52945 21.0447 9.52549C19.9279 9.01304 18.7492 8.64763 17.5383 8.4384C17.5273 8.43635 17.516 8.43783 17.5058 8.44261C17.4957 8.4474 17.4874 8.45525 17.482 8.46506C17.3215 8.75635 17.1758 9.05556 17.0455 9.36154C15.7402 9.1634 14.4125 9.1634 13.1072 9.36154C12.976 9.05478 12.828 8.7555 12.6638 8.46506C12.6582 8.45547 12.6498 8.44779 12.6397 8.44304C12.6297 8.43828 12.6184 8.43667 12.6074 8.4384C11.3964 8.64719 10.2177 9.01263 9.10094 9.52552C9.09138 9.52957 9.08331 9.53649 9.07785 9.54532C6.84458 12.8804 6.2328 16.1335 6.53292 19.3463C6.53376 19.3542 6.53618 19.3618 6.54003 19.3687C6.54388 19.3757 6.54908 19.3817 6.55533 19.3866C7.85574 20.3495 9.31027 21.0844 10.8568 21.5601C10.8677 21.5634 10.8794 21.5632 10.8902 21.5597C10.901 21.5562 10.9104 21.5494 10.9173 21.5403C11.2495 21.0883 11.5438 20.6097 11.7973 20.1094C11.8008 20.1025 11.8027 20.095 11.8031 20.0873C11.8035 20.0796 11.8022 20.0719 11.7994 20.0648C11.7966 20.0576 11.7923 20.0511 11.7867 20.0457C11.7812 20.0404 11.7747 20.0362 11.7674 20.0336C11.3033 19.856 10.854 19.6419 10.4236 19.3933C10.4158 19.3888 10.4092 19.3823 10.4045 19.3746C10.3998 19.3668 10.397 19.3581 10.3965 19.349C10.396 19.3399 10.3977 19.3309 10.4014 19.3227C10.4052 19.3144 10.411 19.3073 10.4182 19.3018C10.5085 19.2341 10.5989 19.1637 10.6851 19.0927C10.6927 19.0864 10.702 19.0823 10.7118 19.081C10.7217 19.0797 10.7317 19.0811 10.7407 19.0852C13.56 20.3718 16.6121 20.3718 19.398 19.0852C19.407 19.0809 19.4172 19.0792 19.4271 19.0804C19.4371 19.0816 19.4465 19.0856 19.4543 19.092C19.5406 19.1631 19.6309 19.2341 19.7219 19.3018C19.7291 19.3072 19.7349 19.3143 19.7388 19.3225C19.7426 19.3307 19.7444 19.3398 19.7439 19.3488C19.7435 19.3579 19.7408 19.3667 19.7361 19.3744C19.7314 19.3822 19.7249 19.3887 19.7171 19.3933C19.2878 19.644 18.838 19.8579 18.3727 20.0329C18.3655 20.0356 18.3589 20.0399 18.3534 20.0454C18.348 20.0508 18.3437 20.0574 18.3409 20.0646C18.3382 20.0718 18.337 20.0795 18.3374 20.0873C18.3378 20.095 18.3399 20.1025 18.3434 20.1094C18.6011 20.607 18.895 21.085 19.2227 21.5395C19.2294 21.5488 19.2388 21.5558 19.2496 21.5595C19.2605 21.5632 19.2722 21.5634 19.2832 21.56C20.8325 21.0859 22.2896 20.3509 23.5916 19.3866C23.598 19.382 23.6032 19.3761 23.6071 19.3692C23.611 19.3624 23.6133 19.3548 23.614 19.347C23.9733 15.6327 23.0125 12.4062 21.0671 9.54599ZM12.2183 17.3901C11.3695 17.3901 10.6701 16.6111 10.6701 15.6545C10.6701 14.6979 11.3559 13.919 12.2183 13.919C13.0874 13.919 13.78 14.7047 13.7664 15.6545C13.7664 16.6111 13.0806 17.3901 12.2183 17.3901ZM17.9423 17.3901C17.0936 17.3901 16.3942 16.6111 16.3942 15.6545C16.3942 14.6979 17.08 13.919 17.9423 13.919C18.8115 13.919 19.5041 14.7047 19.4905 15.6545C19.4905 16.6111 18.8115 17.3901 17.9423 17.3901Z" fill="#5662F6"/>
</svg>
