<svg width="30" height="30" viewBox="0 0 30 30" fill="none" xmlns="http://www.w3.org/2000/svg">
<path d="M11.6895 20.9515C11.6895 21.0321 11.5968 21.0966 11.4798 21.0966C11.3468 21.1087 11.254 21.0442 11.254 20.9515C11.254 20.8708 11.3468 20.8063 11.4637 20.8063C11.5847 20.7942 11.6895 20.8587 11.6895 20.9515ZM10.4355 20.77C10.4073 20.8507 10.4879 20.9434 10.6089 20.9676C10.7137 21.0079 10.8347 20.9676 10.8589 20.8869C10.8831 20.8063 10.8065 20.7136 10.6855 20.6773C10.5806 20.649 10.4637 20.6894 10.4355 20.77ZM12.2177 20.7015C12.1008 20.7297 12.0202 20.8063 12.0323 20.899C12.0444 20.9797 12.1492 21.0321 12.2702 21.0039C12.3871 20.9757 12.4677 20.899 12.4556 20.8184C12.4435 20.7418 12.3347 20.6894 12.2177 20.7015ZM14.871 5.24985C9.27823 5.24985 5 9.49582 5 15.0886C5 19.5603 7.81452 23.3869 11.8347 24.7337C12.3508 24.8265 12.5323 24.5079 12.5323 24.2458C12.5323 23.9958 12.5202 22.6168 12.5202 21.77C12.5202 21.77 9.69758 22.3748 9.10484 20.5684C9.10484 20.5684 8.64516 19.395 7.98387 19.0926C7.98387 19.0926 7.06048 18.4595 8.04839 18.4716C8.04839 18.4716 9.05242 18.5523 9.60484 19.5119C10.4879 21.0684 11.9677 20.6208 12.5444 20.3547C12.6371 19.7095 12.8992 19.2619 13.1895 18.9958C10.9355 18.7458 8.66129 18.4192 8.66129 14.5402C8.66129 13.4313 8.96774 12.8748 9.6129 12.1652C9.50806 11.9031 9.16532 10.8224 9.71774 9.42727C10.5605 9.16517 12.5 10.516 12.5 10.516C13.3065 10.2902 14.1734 10.1732 15.0323 10.1732C15.8911 10.1732 16.7581 10.2902 17.5645 10.516C17.5645 10.516 19.504 9.16114 20.3468 9.42727C20.8992 10.8265 20.5565 11.9031 20.4516 12.1652C21.0968 12.8789 21.4919 13.4353 21.4919 14.5402C21.4919 18.4313 19.1169 18.7418 16.8629 18.9958C17.2339 19.3144 17.5484 19.9192 17.5484 20.8668C17.5484 22.2257 17.5363 23.9071 17.5363 24.2378C17.5363 24.4998 17.7218 24.8184 18.2339 24.7257C22.2661 23.3869 25 19.5603 25 15.0886C25 9.49582 20.4637 5.24985 14.871 5.24985ZM8.91935 19.1571C8.86694 19.1974 8.87903 19.2902 8.94758 19.3668C9.0121 19.4313 9.10484 19.4595 9.15726 19.4071C9.20968 19.3668 9.19758 19.274 9.12903 19.1974C9.06452 19.1329 8.97177 19.1047 8.91935 19.1571ZM8.48387 18.8305C8.45565 18.8829 8.49597 18.9474 8.57661 18.9878C8.64113 19.0281 8.72177 19.016 8.75 18.9595C8.77823 18.9071 8.7379 18.8426 8.65726 18.8023C8.57661 18.7781 8.5121 18.7902 8.48387 18.8305ZM9.79032 20.266C9.72581 20.3184 9.75 20.4394 9.84274 20.516C9.93548 20.6087 10.0524 20.6208 10.1048 20.5563C10.1573 20.5039 10.1331 20.3829 10.0524 20.3063C9.96371 20.2136 9.84274 20.2015 9.79032 20.266ZM9.33065 19.6732C9.26613 19.7136 9.26613 19.8184 9.33065 19.9111C9.39516 20.0039 9.50403 20.0442 9.55645 20.0039C9.62097 19.9515 9.62097 19.8466 9.55645 19.7539C9.5 19.6611 9.39516 19.6208 9.33065 19.6732Z" fill="#303030"/>
</svg>
