<svg width="24" height="24" viewBox="0 0 24 24" fill="none" xmlns="http://www.w3.org/2000/svg">
<path d="M21.448 8.78747L12.7311 6.10933C12.2561 5.96339 11.7436 5.96339 11.2689 6.10933L2.55172 8.78747C1.81609 9.01341 1.81609 9.98622 2.55172 10.2122L4.07141 10.679C3.73798 11.0912 3.53297 11.594 3.51266 12.1447C3.21172 12.3172 2.99985 12.6284 2.99985 13C2.99985 13.3369 3.17735 13.6203 3.43297 13.8015L2.63516 17.3916C2.56578 17.7038 2.80328 18 3.12297 18H4.87642C5.19642 18 5.43392 17.7038 5.36454 17.3916L4.56673 13.8015C4.82236 13.6203 4.99986 13.3369 4.99986 13C4.99986 12.6384 4.79767 12.3359 4.51048 12.1603C4.53423 11.6909 4.77423 11.2759 5.15704 11.0128L11.2686 12.8906C11.5518 12.9775 12.0949 13.0859 12.7308 12.8906L21.448 10.2125C22.184 9.98622 22.184 9.01372 21.448 8.78747ZM13.0246 13.8465C12.133 14.1203 11.3733 13.969 10.9749 13.8465L6.44299 12.4544L5.99986 16C5.99986 17.1047 8.68612 18 11.9999 18C15.3136 18 17.9999 17.1047 17.9999 16L17.5568 12.454L13.0246 13.8465Z" fill="#FF674D"/>
</svg>
