<svg width="100" height="100" viewBox="0 0 100 100" fill="none" xmlns="http://www.w3.org/2000/svg">
<path d="M50 90.2083C48.7083 90.2083 47.4583 90.0417 46.4167 89.6667C30.5 84.2083 5.20831 64.8333 5.20831 36.2083C5.20831 21.625 17 9.79166 31.5 9.79166C38.5416 9.79166 45.125 12.5417 50 17.4583C54.875 12.5417 61.4583 9.79166 68.5 9.79166C83 9.79166 94.7917 21.6667 94.7917 36.2083C94.7917 64.875 69.5 84.2083 53.5833 89.6667C52.5416 90.0417 51.2916 90.2083 50 90.2083ZM31.5 16.0417C20.4583 16.0417 11.4583 25.0833 11.4583 36.2083C11.4583 64.6667 38.8333 80.5 48.4583 83.7917C49.2083 84.0417 50.8333 84.0417 51.5833 83.7917C61.1667 80.5 88.5833 64.7083 88.5833 36.2083C88.5833 25.0833 79.5833 16.0417 68.5417 16.0417C62.2083 16.0417 56.3333 19 52.5416 24.125C51.375 25.7083 48.7083 25.7083 47.5416 24.125C43.6666 18.9583 37.8333 16.0417 31.5 16.0417Z" fill="#FF674D"/>
<path d="M62.5 63.4375H41.25C38.6625 63.4375 36.5625 61.3375 36.5625 58.75V37.5C36.5625 36.9875 36.9875 36.5625 37.5 36.5625C38.0125 36.5625 38.4375 36.9875 38.4375 37.5V58.75C38.4375 60.3 39.7 61.5625 41.25 61.5625H62.5C63.0125 61.5625 63.4375 61.9875 63.4375 62.5C63.4375 63.0125 63.0125 63.4375 62.5 63.4375Z" fill="#FF674D"/>
<path d="M41.2498 57.1875C41.0373 57.1875 40.8123 57.1125 40.6373 56.9625C40.2498 56.625 40.1998 56.0375 40.5373 55.6375L46.2748 48.9375C46.8998 48.2125 47.7998 47.775 48.7498 47.7375C49.6998 47.7125 50.6373 48.0625 51.3123 48.7375L52.4998 49.925C52.8123 50.2375 53.2248 50.3875 53.6623 50.3875C54.0998 50.375 54.4998 50.175 54.7873 49.8375L60.5248 43.1375C60.8623 42.75 61.4498 42.7 61.8498 43.0375C62.2373 43.375 62.2873 43.9625 61.9498 44.3625L56.2123 51.0625C55.5873 51.7875 54.6873 52.225 53.7373 52.2625C52.7873 52.2875 51.8498 51.9375 51.1748 51.2625L49.9998 50.075C49.6873 49.7625 49.2748 49.6 48.8373 49.6125C48.3998 49.625 47.9998 49.825 47.7123 50.1625L41.9748 56.8625C41.7748 57.075 41.5123 57.1875 41.2498 57.1875Z" fill="#FF674D"/>
</svg>
