<svg width="130" height="52" viewBox="0 0 130 52" fill="none" xmlns="http://www.w3.org/2000/svg">
<path d="M62.2786 6.46813C62.2786 5.87205 62.4734 5.37914 62.8746 4.9894C63.2758 4.59965 63.8261 4.40479 64.5139 4.40479C65.1902 4.40479 65.7404 4.59965 66.1416 4.9894C66.5428 5.37914 66.7491 5.87205 66.7491 6.46813C66.7491 7.07567 66.5428 7.56858 66.1301 7.95832C65.7175 8.34806 65.1787 8.54293 64.5024 8.54293C63.8261 8.54293 63.2873 8.34806 62.8746 7.95832C62.4849 7.58004 62.2786 7.07567 62.2786 6.46813ZM66.5199 25.2789H62.5193V10.3312H66.5199V25.2789Z" fill="#292D32"/>
<path d="M68.801 17.702C68.801 15.4094 69.3513 13.5638 70.4402 12.1654C71.5292 10.7669 72.9965 10.0676 74.8535 10.0676C76.4927 10.0676 77.7651 10.6293 78.6821 11.7527L78.8426 10.3427H82.4649V24.7861C82.4649 26.0929 82.1669 27.2278 81.5708 28.2021C80.9748 29.165 80.138 29.9101 79.0604 30.4145C77.9829 30.9189 76.722 31.1711 75.2776 31.1711C74.1772 31.1711 73.1111 30.9532 72.0794 30.5177C71.0363 30.0821 70.2568 29.5204 69.7181 28.8211L71.4834 26.391C72.4807 27.5029 73.6843 28.0646 75.1057 28.0646C76.1603 28.0646 76.9856 27.778 77.5817 27.2163C78.1663 26.6546 78.4643 25.8522 78.4643 24.8091V24.0067C77.5473 25.0498 76.3322 25.5656 74.8306 25.5656C73.0309 25.5656 71.5865 24.8664 70.4746 23.4564C69.3627 22.0579 68.8125 20.1895 68.8125 17.8739V17.702H68.801ZM72.7902 17.9886C72.7902 19.3412 73.0653 20.4073 73.604 21.1753C74.1428 21.9433 74.8879 22.3331 75.8393 22.3331C77.0544 22.3331 77.9256 21.8745 78.4529 20.969V14.6758C77.9141 13.7587 77.0544 13.3117 75.8737 13.3117C74.9108 13.3117 74.1657 13.7014 73.6155 14.4924C73.0653 15.2604 72.7902 16.4411 72.7902 17.9886Z" fill="#292D32"/>
<path d="M88.7697 10.3313L88.8957 12.0622C89.9618 10.7325 91.3947 10.0562 93.1944 10.0562C94.7763 10.0562 95.957 10.5261 96.725 11.4546C97.493 12.3831 97.8942 13.7702 97.9171 15.6272V25.279H93.928V15.7189C93.928 14.8706 93.7446 14.2631 93.3778 13.8733C93.011 13.4951 92.392 13.3002 91.5437 13.3002C90.4203 13.3002 89.5835 13.7816 89.0218 14.7331V25.2676H85.0327V10.3313H88.7697Z" fill="#292D32"/>
<path d="M100.485 6.46813C100.485 5.87205 100.68 5.37914 101.081 4.9894C101.482 4.59965 102.032 4.40479 102.72 4.40479C103.396 4.40479 103.947 4.59965 104.348 4.9894C104.749 5.37914 104.955 5.87205 104.955 6.46813C104.955 7.07567 104.749 7.56858 104.336 7.95832C103.924 8.34806 103.385 8.54293 102.709 8.54293C102.032 8.54293 101.494 8.34806 101.081 7.95832C100.691 7.58004 100.485 7.07567 100.485 6.46813ZM104.726 25.2789H100.726V10.3312H104.726V25.2789Z" fill="#292D32"/>
<path d="M112.372 6.66309V10.3313H114.928V13.2543H112.372V20.7167C112.372 21.267 112.475 21.6682 112.693 21.9089C112.899 22.1496 113.312 22.2643 113.908 22.2643C114.355 22.2643 114.745 22.2299 115.077 22.1726V25.1988C114.298 25.4395 113.484 25.5541 112.659 25.5541C109.862 25.5541 108.429 24.1442 108.383 21.3128V13.2658H106.205V10.3427H108.383V6.67455H112.372V6.66309Z" fill="#292D32"/>
<path d="M123.594 25.5541C121.405 25.5541 119.617 24.8778 118.241 23.5367C116.866 22.1955 116.178 20.4073 116.178 18.1605V17.7708C116.178 16.2691 116.464 14.9279 117.049 13.7472C117.634 12.5665 118.448 11.6495 119.514 11.0076C120.58 10.3656 121.795 10.0447 123.147 10.0447C125.188 10.0447 126.804 10.6866 127.973 11.9819C129.143 13.2658 129.739 15.0999 129.739 17.4613V19.089H120.224C120.35 20.0634 120.74 20.8428 121.394 21.4389C122.047 22.0235 122.861 22.3216 123.858 22.3216C125.394 22.3216 126.598 21.7599 127.457 20.648L129.418 22.8489C128.822 23.6971 128.008 24.362 126.987 24.832C125.979 25.3134 124.844 25.5541 123.594 25.5541ZM123.147 13.2773C122.356 13.2773 121.714 13.5409 121.222 14.0797C120.729 14.6184 120.419 15.3865 120.27 16.3837H125.818V16.0628C125.795 15.1801 125.566 14.4923 125.096 13.9994C124.638 13.518 123.984 13.2773 123.147 13.2773Z" fill="#292D32"/>
<path opacity="0.5" d="M52.0157 0.35129L39.286 47.8829C39.2212 48.0986 38.9623 48.1634 38.8113 48.0123L30.2888 39.4899L36.6753 15.6701C36.74 15.4544 36.5458 15.2602 36.3301 15.3249L12.5103 21.7114L4.03104 13.2321C3.88001 13.081 3.94474 12.8221 4.1605 12.7574L51.6705 0.00607603C51.8863 -0.0370757 52.0804 0.157107 52.0157 0.35129Z" fill="#00B37E"/>
<path opacity="0.5" d="M30.2885 39.4899L27.009 51.7881C26.9442 52.0039 26.6853 52.0686 26.5343 51.9176L0.0823113 25.4872C-0.0687196 25.3362 -0.00399244 25.0773 0.211766 25.0125L12.51 21.7114L30.2885 39.4899Z" fill="#00B37E"/>
<path d="M36.6752 15.6699L30.2887 39.4896L12.5103 21.7111L36.33 15.3247C36.5457 15.2599 36.7399 15.4541 36.6752 15.6699Z" fill="#00B37E"/>
<path d="M67.6221 45.6313C67.6221 45.4246 67.576 45.2333 67.484 45.0575C67.397 44.8766 67.2153 44.7138 66.939 44.5691C66.6679 44.4191 66.2585 44.2899 65.7111 44.1814C65.2506 44.0831 64.8336 43.9668 64.4601 43.8324C64.0917 43.698 63.777 43.5352 63.5161 43.3439C63.2603 43.1527 63.0633 42.9278 62.9251 42.6694C62.787 42.4109 62.7179 42.1085 62.7179 41.7622C62.7179 41.4313 62.7896 41.1186 62.9328 40.8239C63.0812 40.5293 63.2884 40.2683 63.5545 40.0408C63.8256 39.8134 64.1505 39.635 64.5292 39.5058C64.9078 39.3766 65.3299 39.3119 65.7955 39.3119C66.4607 39.3119 67.0286 39.4308 67.4993 39.6686C67.97 39.9064 68.3307 40.2243 68.5814 40.6223C68.8322 41.0152 68.9575 41.452 68.9575 41.9327H67.5377C67.5377 41.7001 67.4686 41.4753 67.3305 41.2582C67.1974 41.0359 67.0004 40.8524 66.7395 40.7076C66.4837 40.5629 66.169 40.4905 65.7955 40.4905C65.4015 40.4905 65.0818 40.5526 64.8362 40.6766C64.5957 40.7955 64.4192 40.948 64.3066 41.1341C64.1992 41.3202 64.1454 41.5166 64.1454 41.7234C64.1454 41.8785 64.171 42.018 64.2222 42.1421C64.2785 42.261 64.3757 42.3721 64.5138 42.4755C64.652 42.5737 64.8464 42.6668 65.0971 42.7547C65.3478 42.8425 65.6676 42.9304 66.0564 43.0183C66.7369 43.1734 67.2972 43.3595 67.7372 43.5766C68.1772 43.7937 68.5047 44.0599 68.7196 44.3752C68.9345 44.6905 69.0419 45.0731 69.0419 45.5228C69.0419 45.8898 68.9652 46.2258 68.8117 46.5308C68.6633 46.8358 68.4459 47.0994 68.1593 47.3217C67.8779 47.5388 67.5402 47.7094 67.1463 47.8334C66.7574 47.9523 66.3199 48.0118 65.8339 48.0118C65.1022 48.0118 64.4831 47.8799 63.9766 47.6163C63.4701 47.3527 63.0863 47.0115 62.8254 46.5928C62.5644 46.1741 62.434 45.7321 62.434 45.2669H63.8615C63.8819 45.6598 63.9945 45.9725 64.1992 46.2051C64.4038 46.4326 64.6545 46.5954 64.9513 46.6936C65.248 46.7867 65.5422 46.8332 65.8339 46.8332C66.2227 46.8332 66.5476 46.7815 66.8086 46.6781C67.0746 46.5747 67.2767 46.4326 67.4149 46.2516C67.553 46.0707 67.6221 45.8639 67.6221 45.6313Z" fill="#292D32"/>
<path d="M72.3267 35.9468V47.8567H70.9069V35.9468H72.3267ZM71.989 43.3439L71.3981 43.3207C71.4032 42.7469 71.4876 42.2171 71.6513 41.7311C71.8151 41.2401 72.0453 40.8136 72.3421 40.4518C72.6388 40.0899 72.9919 39.8108 73.4012 39.6143C73.8156 39.4127 74.2736 39.3119 74.775 39.3119C75.1843 39.3119 75.5527 39.3688 75.8801 39.4825C76.2076 39.5911 76.4864 39.7668 76.7167 40.0098C76.952 40.2527 77.1311 40.5681 77.2539 40.9558C77.3767 41.3383 77.4381 41.8061 77.4381 42.3592V47.8567H76.0106V42.3437C76.0106 41.9043 75.9467 41.5528 75.8187 41.2892C75.6908 41.0204 75.5041 40.8265 75.2585 40.7076C75.0129 40.5836 74.711 40.5215 74.3529 40.5215C73.9998 40.5215 73.6775 40.5965 73.3858 40.7464C73.0993 40.8963 72.8512 41.1031 72.6414 41.3667C72.4367 41.6303 72.2756 41.9327 72.1579 42.2739C72.0453 42.6099 71.989 42.9666 71.989 43.3439Z" fill="#292D32"/>
<path d="M79.188 43.7549V43.5766C79.188 42.9718 79.2749 42.4109 79.4489 41.894C79.6229 41.3719 79.8736 40.9196 80.201 40.5371C80.5285 40.1494 80.925 39.8495 81.3906 39.6376C81.8562 39.4205 82.3781 39.3119 82.9563 39.3119C83.5395 39.3119 84.064 39.4205 84.5296 39.6376C85.0003 39.8495 85.3994 40.1494 85.7269 40.5371C86.0594 40.9196 86.3127 41.3719 86.4867 41.894C86.6606 42.4109 86.7476 42.9718 86.7476 43.5766V43.7549C86.7476 44.3597 86.6606 44.9206 86.4867 45.4375C86.3127 45.9544 86.0594 46.4067 85.7269 46.7944C85.3994 47.1769 85.0029 47.4767 84.5373 47.6938C84.0768 47.9058 83.5549 48.0118 82.9716 48.0118C82.3883 48.0118 81.8639 47.9058 81.3983 47.6938C80.9327 47.4767 80.5336 47.1769 80.201 46.7944C79.8736 46.4067 79.6229 45.9544 79.4489 45.4375C79.2749 44.9206 79.188 44.3597 79.188 43.7549ZM80.6078 43.5766V43.7549C80.6078 44.1736 80.6564 44.5691 80.7536 44.9412C80.8508 45.3083 80.9966 45.6339 81.1911 45.9182C81.3906 46.2025 81.6388 46.4274 81.9355 46.5928C82.2323 46.753 82.5776 46.8332 82.9716 46.8332C83.3605 46.8332 83.7007 46.753 83.9924 46.5928C84.2891 46.4274 84.5347 46.2025 84.7291 45.9182C84.9236 45.6339 85.0694 45.3083 85.1666 44.9412C85.2689 44.5691 85.3201 44.1736 85.3201 43.7549V43.5766C85.3201 43.163 85.2689 42.7727 85.1666 42.4057C85.0694 42.0335 84.921 41.7053 84.7215 41.421C84.527 41.1315 84.2814 40.9041 83.9847 40.7387C83.693 40.5732 83.3502 40.4905 82.9563 40.4905C82.5674 40.4905 82.2246 40.5732 81.9278 40.7387C81.6362 40.9041 81.3906 41.1315 81.1911 41.421C80.9966 41.7053 80.8508 42.0335 80.7536 42.4057C80.6564 42.7727 80.6078 43.163 80.6078 43.5766Z" fill="#292D32"/>
<path d="M89.948 41.0798V51.0823H88.5205V39.467H89.8252L89.948 41.0798ZM95.5429 43.5921V43.7549C95.5429 44.3649 95.4712 44.9309 95.328 45.453C95.1847 45.9699 94.9749 46.4196 94.6986 46.8022C94.4275 47.1847 94.0923 47.4819 93.6933 47.6938C93.2942 47.9058 92.8362 48.0118 92.3195 48.0118C91.7925 48.0118 91.3269 47.9239 90.9227 47.7481C90.5185 47.5724 90.1757 47.3165 89.8942 46.9805C89.6128 46.6445 89.3877 46.2413 89.2189 45.7709C89.0551 45.3005 88.9426 44.7707 88.8812 44.1814V43.3129C88.9426 42.6926 89.0577 42.1369 89.2265 41.6459C89.3954 41.1548 89.618 40.7361 89.8942 40.3897C90.1757 40.0382 90.5159 39.772 90.915 39.5911C91.3141 39.405 91.7746 39.3119 92.2964 39.3119C92.8183 39.3119 93.2814 39.4153 93.6856 39.6221C94.0898 39.8237 94.43 40.1132 94.7063 40.4905C94.9826 40.8679 95.1898 41.3202 95.328 41.8475C95.4712 42.3695 95.5429 42.9511 95.5429 43.5921ZM94.1154 43.7549V43.5921C94.1154 43.1734 94.0719 42.7805 93.9849 42.4135C93.8979 42.0413 93.7623 41.7156 93.5781 41.4365C93.3991 41.1522 93.1688 40.9299 92.8874 40.7697C92.606 40.6043 92.2709 40.5215 91.882 40.5215C91.5239 40.5215 91.2117 40.5836 90.9457 40.7076C90.6847 40.8317 90.4622 40.9997 90.278 41.2116C90.0938 41.4184 89.9429 41.6562 89.8252 41.925C89.7126 42.1886 89.6282 42.4626 89.5719 42.7469V44.7551C89.6742 45.117 89.8175 45.4582 90.0017 45.7787C90.1859 46.094 90.4315 46.3499 90.7385 46.5463C91.0455 46.7375 91.4318 46.8332 91.8974 46.8332C92.2811 46.8332 92.6111 46.753 92.8874 46.5928C93.1688 46.4274 93.3991 46.2025 93.5781 45.9182C93.7623 45.6339 93.8979 45.3083 93.9849 44.9412C94.0719 44.5691 94.1154 44.1736 94.1154 43.7549Z" fill="#292D32"/>
</svg>
