<svg width="30" height="30" viewBox="0 0 30 30" fill="none" xmlns="http://www.w3.org/2000/svg">
<path d="M10.4224 23.1559H7.021V12.2025H10.4224V23.1559ZM8.71985 10.7084C7.6322 10.7084 6.75 9.8075 6.75 8.71985C6.75 8.19741 6.95754 7.69637 7.32696 7.32696C7.69637 6.95754 8.19741 6.75 8.71985 6.75C9.24229 6.75 9.74332 6.95754 10.1127 7.32696C10.4822 7.69637 10.6897 8.19741 10.6897 8.71985C10.6897 9.8075 9.80713 10.7084 8.71985 10.7084ZM23.1526 23.1559H19.7585V17.8239C19.7585 16.5531 19.7329 14.9235 17.9901 14.9235C16.2217 14.9235 15.9507 16.3041 15.9507 17.7323V23.1559H12.553V12.2025H15.8152V13.6967H15.8628C16.3169 12.8361 17.4261 11.9279 19.0811 11.9279C22.5234 11.9279 23.1562 14.1947 23.1562 17.139V23.1559H23.1526Z" fill="#0A66C2"/>
</svg>
