<svg width="80" height="60" viewBox="0 0 80 60" fill="none" xmlns="http://www.w3.org/2000/svg">
<path d="M15.4391 36.54L3.97914 29.64C3.51914 29.36 3.28914 28.97 3.28914 28.47C3.28914 28.05 3.51914 27.67 3.97914 27.33L15.4391 20.43C15.8791 20.21 16.3091 20.2 16.7291 20.4C17.1491 20.6 17.3591 20.95 17.3591 21.45C17.3591 21.95 17.1491 22.33 16.7291 22.59L5.86914 29.07V27.78L16.7291 34.29C17.1491 34.57 17.3591 34.95 17.3591 35.43C17.3591 35.77 17.2491 36.05 17.0291 36.27C16.8291 36.49 16.5791 36.63 16.2791 36.69C15.9991 36.75 15.7191 36.7 15.4391 36.54ZM28.7854 39.3C27.5054 39.3 26.3054 39.11 25.1854 38.73C24.0854 38.35 23.1254 37.82 22.3054 37.14C21.4854 36.44 20.8754 35.63 20.4754 34.71C20.2954 34.37 20.2854 34.05 20.4454 33.75C20.6254 33.45 20.9154 33.25 21.3154 33.15C21.6154 33.07 21.9154 33.11 22.2154 33.27C22.5154 33.41 22.7354 33.64 22.8754 33.96C23.1754 34.52 23.6054 35.03 24.1654 35.49C24.7454 35.93 25.4254 36.28 26.2054 36.54C27.0054 36.78 27.8654 36.9 28.7854 36.9C29.8254 36.9 30.7554 36.73 31.5754 36.39C32.3954 36.05 33.0454 35.56 33.5254 34.92C34.0054 34.28 34.2454 33.5 34.2454 32.58C34.2454 31.42 33.8054 30.41 32.9254 29.55C32.0454 28.67 30.6454 28.12 28.7254 27.9C26.3454 27.62 24.4754 26.89 23.1154 25.71C21.7754 24.53 21.1054 23.07 21.1054 21.33C21.1054 20.09 21.4454 19.02 22.1254 18.12C22.8054 17.2 23.7354 16.5 24.9154 16.02C26.0954 15.52 27.4354 15.27 28.9354 15.27C30.0754 15.27 31.0954 15.45 31.9954 15.81C32.8954 16.15 33.6754 16.61 34.3354 17.19C35.0154 17.77 35.5754 18.42 36.0154 19.14C36.2554 19.5 36.3354 19.85 36.2554 20.19C36.1954 20.51 36.0154 20.76 35.7154 20.94C35.3954 21.1 35.0554 21.13 34.6954 21.03C34.3554 20.91 34.0954 20.69 33.9154 20.37C33.6154 19.89 33.2354 19.45 32.7754 19.05C32.3354 18.63 31.7954 18.3 31.1554 18.06C30.5154 17.82 29.7554 17.69 28.8754 17.67C27.3354 17.67 26.0754 17.99 25.0954 18.63C24.1154 19.27 23.6254 20.22 23.6254 21.48C23.6254 22.12 23.7954 22.73 24.1354 23.31C24.4954 23.87 25.0854 24.35 25.9054 24.75C26.7454 25.15 27.8854 25.45 29.3254 25.65C31.8054 25.97 33.6654 26.72 34.9054 27.9C36.1454 29.08 36.7654 30.63 36.7654 32.55C36.7654 33.65 36.5554 34.62 36.1354 35.46C35.7354 36.3 35.1654 37.01 34.4254 37.59C33.6854 38.15 32.8254 38.58 31.8454 38.88C30.8854 39.16 29.8654 39.3 28.7854 39.3ZM49.8121 41.31C49.3521 41.31 48.9921 41.12 48.7321 40.74C48.4921 40.38 48.4721 39.97 48.6721 39.51L57.9721 16.29C58.0721 16.05 58.2221 15.87 58.4221 15.75C58.6421 15.61 58.8821 15.54 59.1421 15.54C59.6221 15.54 59.9721 15.73 60.1921 16.11C60.4321 16.47 60.4721 16.88 60.3121 17.34L51.0121 40.56C50.8921 40.84 50.7221 41.03 50.5021 41.13C50.2821 41.25 50.0521 41.31 49.8121 41.31ZM64.5646 36.54C64.2846 36.7 63.9946 36.75 63.6946 36.69C63.4146 36.63 63.1646 36.49 62.9446 36.27C62.7446 36.05 62.6446 35.77 62.6446 35.43C62.6446 34.95 62.8546 34.57 63.2746 34.29L74.1646 27.78V29.07L63.2746 22.59C62.8546 22.33 62.6446 21.95 62.6446 21.45C62.6446 20.95 62.8546 20.6 63.2746 20.4C63.6946 20.2 64.1246 20.21 64.5646 20.43L76.0246 27.33C76.4846 27.67 76.7146 28.05 76.7146 28.47C76.7146 28.97 76.4846 29.36 76.0246 29.64L64.5646 36.54Z" fill="#FF674D"/>
<path d="M15.4391 36.54L15.1812 36.9685L15.1911 36.9741L15.4391 36.54ZM3.97914 29.64L3.71916 30.0671L3.72123 30.0683L3.97914 29.64ZM3.97914 27.33L3.72123 26.9016L3.70097 26.9139L3.68194 26.9279L3.97914 27.33ZM15.4391 20.43L15.2155 19.9828L15.198 19.9915L15.1812 20.0016L15.4391 20.43ZM16.7291 20.4L16.5142 20.8514L16.5142 20.8514L16.7291 20.4ZM16.7291 22.59L16.9854 23.0194L16.9923 23.0151L16.7291 22.59ZM5.86914 29.07H5.36914V29.9506L6.12534 29.4994L5.86914 29.07ZM5.86914 27.78L6.12621 27.3511L5.36914 26.8973V27.78H5.86914ZM16.7291 34.29L17.0065 33.874L16.9965 33.8673L16.9862 33.8611L16.7291 34.29ZM17.0291 36.27L16.6756 35.9164L16.6672 35.9249L16.6592 35.9337L17.0291 36.27ZM16.2791 36.69L16.1811 36.1997L16.1744 36.2011L16.2791 36.69ZM15.697 36.1117L4.23705 29.2116L3.72123 30.0683L15.1812 36.9683L15.697 36.1117ZM4.23911 29.2129C3.9143 29.0152 3.78914 28.7799 3.78914 28.47H2.78914C2.78914 29.1601 3.12398 29.7048 3.71917 30.0671L4.23911 29.2129ZM3.78914 28.47C3.78914 28.2617 3.89408 28.0146 4.27634 27.7321L3.68194 26.9279C3.14421 27.3254 2.78914 27.8383 2.78914 28.47H3.78914ZM4.23705 27.7583L15.697 20.8583L15.1812 20.0016L3.72123 26.9016L4.23705 27.7583ZM15.6627 20.8772C15.9742 20.7215 16.2422 20.7219 16.5142 20.8514L16.9441 19.9486C16.3761 19.6781 15.7841 19.6985 15.2155 19.9828L15.6627 20.8772ZM16.5142 20.8514C16.6481 20.9152 16.7253 20.9905 16.7729 21.0697C16.8218 21.1513 16.8591 21.2703 16.8591 21.45H17.8591C17.8591 21.1297 17.7915 20.8237 17.6304 20.5553C17.468 20.2845 17.2301 20.0848 16.9441 19.9486L16.5142 20.8514ZM16.8591 21.45C16.8591 21.7794 16.7365 21.9974 16.466 22.1649L16.9923 23.0151C17.5617 22.6626 17.8591 22.1206 17.8591 21.45H16.8591ZM16.4729 22.1606L5.61294 28.6406L6.12534 29.4994L16.9853 23.0194L16.4729 22.1606ZM6.36914 29.07V27.78H5.36914V29.07H6.36914ZM5.61207 28.2089L16.4721 34.7189L16.9862 33.8611L6.12621 27.3511L5.61207 28.2089ZM16.4518 34.706C16.7413 34.899 16.8591 35.1272 16.8591 35.43H17.8591C17.8591 34.7728 17.557 34.241 17.0065 33.874L16.4518 34.706ZM16.8591 35.43C16.8591 35.6509 16.7927 35.7994 16.6756 35.9164L17.3827 36.6236C17.7056 36.3006 17.8591 35.8891 17.8591 35.43H16.8591ZM16.6592 35.9337C16.5332 36.0722 16.3796 36.16 16.1811 36.1997L16.3772 37.1803C16.7787 37.1 17.125 36.9078 17.3991 36.6063L16.6592 35.9337ZM16.1744 36.2011C16.0301 36.232 15.8748 36.2131 15.6872 36.1059L15.1911 36.9741C15.5635 37.1869 15.9682 37.268 16.3839 37.1789L16.1744 36.2011ZM25.1854 38.73L25.0221 39.2026L25.0247 39.2035L25.1854 38.73ZM22.3054 37.14L21.9807 37.5203L21.9862 37.5249L22.3054 37.14ZM20.4754 34.71L20.9339 34.5106L20.9263 34.493L20.9173 34.4761L20.4754 34.71ZM20.4454 33.75L20.0166 33.4928L20.0102 33.5036L20.0042 33.5147L20.4454 33.75ZM21.3154 33.15L21.4367 33.6351L21.4442 33.6331L21.3154 33.15ZM22.2154 33.27L21.9801 33.7112L21.9919 33.7175L22.0039 33.7231L22.2154 33.27ZM22.8754 33.96L22.4173 34.1604L22.4253 34.1786L22.4347 34.1961L22.8754 33.96ZM24.1654 35.49L23.848 35.8764L23.8555 35.8825L23.8632 35.8883L24.1654 35.49ZM26.2054 36.54L26.0473 37.0143L26.0545 37.0167L26.0617 37.0189L26.2054 36.54ZM31.5754 36.39L31.7669 36.8519L31.5754 36.39ZM33.5254 34.92L33.1254 34.62V34.62L33.5254 34.92ZM32.9254 29.55L32.5718 29.9036L32.5759 29.9076L32.9254 29.55ZM28.7254 27.9L28.667 28.3966L28.6685 28.3967L28.7254 27.9ZM23.1154 25.71L22.7849 26.0853L22.7877 26.0877L23.1154 25.71ZM22.1254 18.12L22.5243 18.4214L22.5275 18.4172L22.1254 18.12ZM24.9154 16.02L25.1038 16.4832L25.1105 16.4804L24.9154 16.02ZM31.9954 15.81L31.8097 16.2743L31.8187 16.2777L31.9954 15.81ZM34.3354 17.19L34.0053 17.5656L34.0109 17.5704L34.3354 17.19ZM36.0154 19.14L35.5887 19.4007L35.5939 19.4091L35.5994 19.4173L36.0154 19.14ZM36.2554 20.19L35.7687 20.0755L35.7661 20.0866L35.764 20.0979L36.2554 20.19ZM35.7154 20.94L35.939 21.3872L35.9562 21.3786L35.9726 21.3687L35.7154 20.94ZM34.6954 21.03L34.529 21.5015L34.5451 21.5072L34.5616 21.5118L34.6954 21.03ZM33.9154 20.37L34.3512 20.1249L34.3455 20.1148L34.3394 20.105L33.9154 20.37ZM32.7754 19.05L32.4302 19.4117L32.4385 19.4197L32.4473 19.4273L32.7754 19.05ZM31.1554 18.06L30.9798 18.5282V18.5282L31.1554 18.06ZM28.8754 17.67L28.8868 17.17H28.8754V17.67ZM25.0954 18.63L25.3688 19.0486L25.0954 18.63ZM24.1354 23.31L23.704 23.5629L23.7092 23.5717L23.7148 23.5804L24.1354 23.31ZM25.9054 24.75L25.6862 25.1994L25.6904 25.2014L25.9054 24.75ZM29.3254 25.65L29.2566 26.1453L29.2614 26.1459L29.3254 25.65ZM34.9054 27.9L34.5607 28.2622H34.5607L34.9054 27.9ZM36.1354 35.46L35.6881 35.2364L35.684 35.245L36.1354 35.46ZM34.4254 37.59L34.7272 37.9888L34.7338 37.9835L34.4254 37.59ZM31.8454 38.88L31.9854 39.36L31.9917 39.3581L31.8454 38.88ZM28.7854 38.8C27.5555 38.8 26.4102 38.6176 25.346 38.2565L25.0247 39.2035C26.2006 39.6024 27.4552 39.8 28.7854 39.8V38.8ZM25.3487 38.2574C24.3002 37.8952 23.3942 37.3933 22.6246 36.7551L21.9862 37.5249C22.8566 38.2467 23.8706 38.8048 25.0221 39.2026L25.3487 38.2574ZM22.63 36.7597C21.8634 36.1053 21.3014 35.3558 20.9339 34.5106L20.0169 34.9094C20.4494 35.9042 21.1074 36.7747 21.9808 37.5203L22.63 36.7597ZM20.9173 34.4761C20.8031 34.2603 20.816 34.1176 20.8866 33.9853L20.0042 33.5147C19.7548 33.9824 19.7877 34.4797 20.0335 34.9439L20.9173 34.4761ZM20.8741 34.0072C20.9738 33.8411 21.1406 33.7091 21.4367 33.6351L21.1941 32.6649C20.6902 32.7909 20.2769 33.0589 20.0166 33.4928L20.8741 34.0072ZM21.4442 33.6331C21.6098 33.589 21.7802 33.6046 21.9801 33.7112L22.4507 32.8288C22.0506 32.6154 21.621 32.551 21.1866 32.6669L21.4442 33.6331ZM22.0039 33.7231C22.1873 33.8087 22.3231 33.9451 22.4173 34.1604L23.3335 33.7596C23.1476 33.3349 22.8435 33.0113 22.4268 32.8169L22.0039 33.7231ZM22.4347 34.1961C22.7696 34.8213 23.2445 35.3806 23.848 35.8764L24.4828 35.1036C23.9663 34.6794 23.5812 34.2187 23.3161 33.7239L22.4347 34.1961ZM23.8632 35.8883C24.492 36.3654 25.222 36.7393 26.0473 37.0143L26.3635 36.0657C25.6287 35.8207 24.9988 35.4946 24.4676 35.0917L23.8632 35.8883ZM26.0617 37.0189C26.9128 37.2742 27.8216 37.4 28.7854 37.4V36.4C27.9092 36.4 27.098 36.2858 26.3491 36.0611L26.0617 37.0189ZM28.7854 37.4C29.88 37.4 30.8767 37.221 31.7669 36.8519L31.3839 35.9281C30.6341 36.239 29.7708 36.4 28.7854 36.4V37.4ZM31.7669 36.8519C32.6603 36.4814 33.3859 35.9393 33.9254 35.22L33.1254 34.62C32.7049 35.1807 32.1305 35.6186 31.3839 35.9281L31.7669 36.8519ZM33.9254 35.22C34.4798 34.4808 34.7454 33.5913 34.7454 32.58H33.7454C33.7454 33.4087 33.531 34.0792 33.1254 34.62L33.9254 35.22ZM34.7454 32.58C34.7454 31.2766 34.2446 30.1401 33.2749 29.1924L32.5759 29.9076C33.3662 30.6799 33.7454 31.5634 33.7454 32.58H34.7454ZM33.2789 29.1964C32.2855 28.203 30.756 27.6294 28.7823 27.4032L28.6685 28.3967C30.5348 28.6106 31.8053 29.137 32.5718 29.9036L33.2789 29.1964ZM28.7838 27.4034C26.4711 27.1313 24.7059 26.428 23.4431 25.3323L22.7877 26.0877C24.2449 27.352 26.2197 28.1087 28.667 28.3966L28.7838 27.4034ZM23.4458 25.3348C22.2104 24.2468 21.6054 22.9221 21.6054 21.33H20.6054C20.6054 23.2179 21.3404 24.8132 22.785 26.0852L23.4458 25.3348ZM21.6054 21.33C21.6054 20.1874 21.9165 19.2259 22.5243 18.4214L21.7265 17.8186C20.9743 18.8141 20.6054 19.9926 20.6054 21.33H21.6054ZM22.5275 18.4172C23.1468 17.5793 23.999 16.9326 25.1038 16.4831L24.727 15.5569C23.4718 16.0674 22.464 16.8207 21.7233 17.8228L22.5275 18.4172ZM25.1105 16.4804C26.2192 16.0106 27.4911 15.77 28.9354 15.77V14.77C27.3796 14.77 25.9716 15.0294 24.7203 15.5596L25.1105 16.4804ZM28.9354 15.77C30.0228 15.77 30.9782 15.9416 31.8097 16.2742L32.1811 15.3458C31.2126 14.9584 30.128 14.77 28.9354 14.77V15.77ZM31.8187 16.2777C32.6678 16.5985 33.3946 17.0289 34.0053 17.5656L34.6654 16.8144C33.9562 16.1911 33.123 15.7015 32.1721 15.3423L31.8187 16.2777ZM34.0109 17.5704C34.6531 18.1182 35.1779 18.7284 35.5887 19.4007L36.442 18.8793C35.9729 18.1116 35.3776 17.4218 34.6599 16.8096L34.0109 17.5704ZM35.5994 19.4173C35.7822 19.6916 35.8097 19.9012 35.7687 20.0755L36.7421 20.3045C36.8611 19.7988 36.7286 19.3084 36.4314 18.8626L35.5994 19.4173ZM35.764 20.0979C35.7324 20.2659 35.6459 20.3986 35.4581 20.5113L35.9726 21.3687C36.3849 21.1214 36.6583 20.7541 36.7468 20.2821L35.764 20.0979ZM35.4918 20.4928C35.2878 20.5948 35.0757 20.6167 34.8292 20.5482L34.5616 21.5118C35.0351 21.6433 35.503 21.6052 35.939 21.3872L35.4918 20.4928ZM34.8618 20.5585C34.6383 20.4796 34.473 20.3414 34.3512 20.1249L33.4796 20.6151C33.7178 21.0386 34.0724 21.3404 34.529 21.5015L34.8618 20.5585ZM34.3394 20.105C34.0112 19.5799 33.598 19.1027 33.1035 18.6727L32.4473 19.4273C32.8728 19.7973 33.2196 20.2001 33.4914 20.635L34.3394 20.105ZM33.1206 18.6883C32.6261 18.2163 32.0263 17.8526 31.331 17.5918L30.9798 18.5282C31.5645 18.7474 32.0446 19.0437 32.4302 19.4117L33.1206 18.6883ZM31.331 17.5918C30.6257 17.3274 29.8076 17.1911 28.8868 17.1701L28.864 18.1699C29.7032 18.1889 30.4051 18.3126 30.9798 18.5282L31.331 17.5918ZM28.8754 17.17C27.2684 17.17 25.9053 17.5039 24.822 18.2114L25.3688 19.0486C26.2455 18.4761 27.4024 18.17 28.8754 18.17V17.17ZM24.822 18.2114C23.6882 18.9518 23.1254 20.0665 23.1254 21.48H24.1254C24.1254 20.3735 24.5426 19.5882 25.3688 19.0486L24.822 18.2114ZM23.1254 21.48C23.1254 22.2134 23.3215 22.9102 23.704 23.5629L24.5667 23.0571C24.2693 22.5498 24.1254 22.0265 24.1254 21.48H23.1254ZM23.7148 23.5804C24.1394 24.2408 24.8132 24.7736 25.6862 25.1994L26.1246 24.3006C25.3575 23.9264 24.8514 23.4992 24.556 23.0396L23.7148 23.5804ZM25.6904 25.2014C26.595 25.6322 27.791 25.9417 29.2566 26.1452L29.3942 25.1548C27.9797 24.9583 26.8958 24.6678 26.1204 24.2986L25.6904 25.2014ZM29.2614 26.1459C31.6825 26.4583 33.4259 27.1823 34.5607 28.2622L35.2501 27.5378C33.9049 26.2577 31.9283 25.4817 29.3894 25.1541L29.2614 26.1459ZM34.5607 28.2622C35.689 29.3359 36.2654 30.7486 36.2654 32.55H37.2654C37.2654 30.5114 36.6018 28.8241 35.2501 27.5378L34.5607 28.2622ZM36.2654 32.55C36.2654 33.5856 36.068 34.4768 35.6882 35.2364L36.5826 35.6836C37.0428 34.7632 37.2654 33.7144 37.2654 32.55H36.2654ZM35.684 35.245C35.3175 36.0145 34.7968 36.6636 34.117 37.1965L34.7338 37.9835C35.534 37.3564 36.1532 36.5855 36.5868 35.675L35.684 35.245ZM34.1237 37.1913C33.435 37.7124 32.6288 38.1173 31.699 38.4019L31.9917 39.3581C33.022 39.0427 33.9358 38.5876 34.7271 37.9887L34.1237 37.1913ZM31.7054 38.4C30.7944 38.6657 29.8218 38.8 28.7854 38.8V39.8C29.909 39.8 30.9764 39.6543 31.9854 39.36L31.7054 38.4ZM48.7321 40.74L48.3161 41.0174L48.3195 41.0223L48.7321 40.74ZM48.6721 39.51L49.1306 39.7094L49.1336 39.7027L49.1363 39.6959L48.6721 39.51ZM57.9721 16.29L57.5105 16.0977L57.508 16.1041L57.9721 16.29ZM58.4221 15.75L58.6794 16.1789L58.6905 16.1718L58.4221 15.75ZM60.1921 16.11L59.7594 16.3605L59.7673 16.3742L59.7761 16.3874L60.1921 16.11ZM60.3121 17.34L60.7763 17.5259L60.7806 17.5152L60.7844 17.5043L60.3121 17.34ZM51.0121 40.56L51.4718 40.757L51.4763 40.7459L51.0121 40.56ZM50.5021 41.13L50.2952 40.6748L50.2787 40.6823L50.2627 40.6911L50.5021 41.13ZM49.8121 40.81C49.5173 40.81 49.3117 40.7016 49.1448 40.4577L48.3195 41.0223C48.6725 41.5384 49.1869 41.81 49.8121 41.81V40.81ZM49.1481 40.4627C49.0187 40.2685 48.9858 40.0426 49.1306 39.7094L48.2136 39.3106C47.9584 39.8974 47.9655 40.4915 48.3161 41.0174L49.1481 40.4627ZM49.1363 39.6959L58.4363 16.4759L57.508 16.1041L48.208 39.3241L49.1363 39.6959ZM58.4336 16.4823C58.4975 16.329 58.5814 16.2375 58.6794 16.1787L58.1649 15.3213C57.8628 15.5025 57.6467 15.771 57.5106 16.0977L58.4336 16.4823ZM58.6905 16.1718C58.8306 16.0827 58.9775 16.04 59.1421 16.04V15.04C58.7867 15.04 58.4536 15.1373 58.1537 15.3282L58.6905 16.1718ZM59.1421 16.04C59.4639 16.04 59.6385 16.1516 59.7594 16.3605L60.6248 15.8595C60.3058 15.3084 59.7803 15.04 59.1421 15.04V16.04ZM59.7761 16.3874C59.9175 16.5994 59.9558 16.8424 59.8399 17.1757L60.7844 17.5043C60.9884 16.9176 60.9468 16.3406 60.6081 15.8326L59.7761 16.3874ZM59.848 17.1541L50.548 40.3741L51.4763 40.7459L60.7763 17.5259L59.848 17.1541ZM50.5525 40.363C50.4683 40.5595 50.3744 40.6388 50.2952 40.6748L50.709 41.5852C51.0698 41.4212 51.3159 41.1205 51.4717 40.757L50.5525 40.363ZM50.2627 40.6911C50.1128 40.7728 49.9647 40.81 49.8121 40.81V41.81C50.1395 41.81 50.4515 41.7272 50.7415 41.5689L50.2627 40.6911ZM64.5646 36.54L64.8127 36.9742L64.8225 36.9683L64.5646 36.54ZM63.6946 36.69L63.5898 37.1789L63.5965 37.1803L63.6946 36.69ZM62.9446 36.27L62.5746 36.6063L62.5826 36.6151L62.5911 36.6236L62.9446 36.27ZM63.2746 34.29L63.0181 33.8608L63.0075 33.8671L62.9973 33.874L63.2746 34.29ZM74.1646 27.78H74.6646V26.8986L73.9081 27.3508L74.1646 27.78ZM74.1646 29.07L73.9089 29.4997L74.6646 29.9493V29.07H74.1646ZM63.2746 22.59L63.0114 23.0152L63.0189 23.0197L63.2746 22.59ZM63.2746 20.4L63.4896 20.8514L63.4896 20.8514L63.2746 20.4ZM64.5646 20.43L64.8225 20.0016L64.8057 19.9915L64.7882 19.9828L64.5646 20.43ZM76.0246 27.33L76.3218 26.9279L76.3028 26.9139L76.2825 26.9016L76.0246 27.33ZM76.0246 29.64L76.2825 30.0684L76.2846 30.0671L76.0246 29.64ZM64.3165 36.1059C64.1352 36.2095 63.9675 36.2347 63.7927 36.1997L63.5965 37.1803C64.0217 37.2653 64.434 37.1905 64.8127 36.9741L64.3165 36.1059ZM63.7994 36.2011C63.6218 36.163 63.4562 36.0744 63.2982 35.9164L62.5911 36.6236C62.8731 36.9056 63.2075 37.097 63.5898 37.1789L63.7994 36.2011ZM63.3146 35.9337C63.2103 35.8189 63.1446 35.6647 63.1446 35.43H62.1446C62.1446 35.8753 62.2789 36.2811 62.5746 36.6063L63.3146 35.9337ZM63.1446 35.43C63.1446 35.1272 63.2625 34.899 63.552 34.706L62.9973 33.874C62.4467 34.241 62.1446 34.7728 62.1446 35.43H63.1446ZM63.5312 34.7192L74.4212 28.2092L73.9081 27.3508L63.0181 33.8608L63.5312 34.7192ZM73.6646 27.78V29.07H74.6646V27.78H73.6646ZM74.4203 28.6403L63.5303 22.1603L63.0189 23.0197L73.9089 29.4997L74.4203 28.6403ZM63.5378 22.1649C63.2672 21.9974 63.1446 21.7794 63.1446 21.45H62.1446C62.1446 22.1206 62.442 22.6626 63.0114 23.0151L63.5378 22.1649ZM63.1446 21.45C63.1446 21.2703 63.1819 21.1513 63.2309 21.0697C63.2784 20.9905 63.3556 20.9152 63.4896 20.8514L63.0596 19.9486C62.7736 20.0848 62.5358 20.2845 62.3734 20.5553C62.2123 20.8237 62.1446 21.1297 62.1446 21.45H63.1446ZM63.4896 20.8514C63.7615 20.7219 64.0296 20.7215 64.341 20.8772L64.7882 19.9828C64.2197 19.6985 63.6277 19.6781 63.0596 19.9486L63.4896 20.8514ZM64.3067 20.8583L75.7667 27.7583L76.2825 26.9016L64.8225 20.0016L64.3067 20.8583ZM75.7274 27.7321C76.1097 28.0146 76.2146 28.2617 76.2146 28.47H77.2146C77.2146 27.8383 76.8595 27.3254 76.3218 26.9279L75.7274 27.7321ZM76.2146 28.47C76.2146 28.7799 76.0894 29.0152 75.7646 29.2129L76.2846 30.0671C76.8798 29.7048 77.2146 29.1601 77.2146 28.47H76.2146ZM75.7667 29.2116L64.3067 36.1117L64.8225 36.9683L76.2825 30.0683L75.7667 29.2116Z" fill="#FF674D"/>
</svg>
