<svg width="194" height="194" viewBox="0 0 194 194" fill="none" xmlns="http://www.w3.org/2000/svg">
<path d="M27.9154 30.9834C28.418 29.5472 29.5472 28.4179 30.9834 27.9154L108.345 0.845376C109.781 0.34281 111.368 0.52162 112.657 1.33117L182.055 44.937C183.343 45.7466 184.193 47.0988 184.363 48.6108L193.54 130.057C193.71 131.569 193.183 133.076 192.107 134.152L134.152 192.107C133.076 193.183 131.569 193.71 130.057 193.54L48.6109 184.363C47.0988 184.193 45.7466 183.343 44.9371 182.055L1.3312 112.657C0.521643 111.368 0.342842 109.781 0.845401 108.345L27.9154 30.9834Z" fill="#FF424D" fill-opacity="0.3"/>
</svg>
