<svg width="196" height="196" viewBox="0 0 196 196" fill="none" xmlns="http://www.w3.org/2000/svg">
<path d="M27.9416 30.36C28.4384 29.2946 29.2946 28.4383 30.36 27.9415L89.0564 0.570955C90.1218 0.0741666 91.3282 -0.0313813 92.4636 0.272866L155.021 17.0351C156.157 17.3394 157.149 18.0339 157.823 18.9969L194.97 72.0487C195.644 73.0116 195.958 74.1813 195.855 75.3524L190.211 139.87C190.108 141.041 189.597 142.139 188.765 142.97L142.97 188.765C142.139 189.596 141.041 190.108 139.87 190.211L75.3524 195.855C74.1813 195.958 73.0116 195.644 72.0487 194.97L18.9969 157.823C18.034 157.149 17.3394 156.157 17.0351 155.021L0.272895 92.4636C-0.0313504 91.3281 0.074192 90.1218 0.570987 89.0564L27.9416 30.36Z" fill="#FF424D" fill-opacity="0.3"/>
</svg>
