<svg width="100" height="35" viewBox="0 0 100 35" fill="none" xmlns="http://www.w3.org/2000/svg">
<path d="M16.4811 28.76L1.72109 19.92C1.00109 19.4667 0.641094 18.8533 0.641094 18.08C0.641094 17.3867 1.00109 16.7867 1.72109 16.28L16.4811 7.4C17.2011 7.02667 17.8944 7.02667 18.5611 7.4C19.2278 7.74667 19.5611 8.30666 19.5611 9.08C19.5611 9.88 19.2278 10.48 18.5611 10.88L5.08109 18.88V17.16L18.5611 25.24C19.2278 25.6667 19.5611 26.2533 19.5611 27C19.5611 27.5333 19.3878 27.9867 19.0411 28.36C18.7211 28.7067 18.3211 28.9333 17.8411 29.04C17.3611 29.12 16.9078 29.0267 16.4811 28.76ZM34.9161 32.4C33.2094 32.4 31.5828 32.1333 30.0361 31.6C28.4894 31.0667 27.1428 30.32 25.9961 29.36C24.8494 28.4 24.0094 27.2933 23.4761 26.04C23.2094 25.48 23.2094 24.96 23.4761 24.48C23.7694 24 24.2494 23.6933 24.9161 23.56C25.3961 23.4533 25.8628 23.5333 26.3161 23.8C26.7961 24.04 27.1561 24.4133 27.3961 24.92C27.7161 25.5867 28.2361 26.2 28.9561 26.76C29.7028 27.32 30.5961 27.7733 31.6361 28.12C32.6761 28.4667 33.7694 28.64 34.9161 28.64C36.1961 28.64 37.3694 28.44 38.4361 28.04C39.5294 27.64 40.4094 27.0667 41.0761 26.32C41.7428 25.5467 42.0761 24.6 42.0761 23.48C42.0761 22.0667 41.5161 20.8 40.3961 19.68C39.3028 18.56 37.4894 17.8667 34.9561 17.6C31.6494 17.28 29.0494 16.3067 27.1561 14.68C25.2628 13.0533 24.3161 11.04 24.3161 8.64C24.3161 6.88 24.8094 5.38667 25.7961 4.16C26.7828 2.93333 28.1161 2 29.7961 1.36C31.5028 0.719999 33.3961 0.399999 35.4761 0.399999C37.1028 0.399999 38.5161 0.626665 39.7161 1.08C40.9428 1.53333 42.0094 2.16 42.9161 2.96C43.8228 3.76 44.6094 4.70667 45.2761 5.8C45.6494 6.38667 45.7961 6.94667 45.7161 7.48C45.6628 7.98667 45.4094 8.38667 44.9561 8.68C44.4494 9 43.9028 9.06667 43.3161 8.88C42.7294 8.69333 42.2894 8.34667 41.9961 7.84C41.5694 7.06667 41.0494 6.41333 40.4361 5.88C39.8228 5.34666 39.1028 4.93333 38.2761 4.64C37.4494 4.32 36.4761 4.16 35.3561 4.16C33.3828 4.13333 31.7294 4.50667 30.3961 5.28C29.0628 6.02666 28.3961 7.18667 28.3961 8.76C28.3961 9.56 28.5961 10.3333 28.9961 11.08C29.4228 11.8 30.1828 12.4267 31.2761 12.96C32.3961 13.4933 33.9961 13.8667 36.0761 14.08C39.2494 14.4 41.7161 15.3733 43.4761 17C45.2628 18.6 46.1561 20.72 46.1561 23.36C46.1561 24.88 45.8361 26.2 45.1961 27.32C44.5828 28.44 43.7428 29.3867 42.6761 30.16C41.6361 30.9067 40.4361 31.4667 39.0761 31.84C37.7428 32.2133 36.3561 32.4 34.9161 32.4ZM63.7739 34.96C63.0272 34.96 62.4539 34.6533 62.0539 34.04C61.6806 33.4533 61.6406 32.8 61.9339 32.08L73.9739 1.96C74.1339 1.58666 74.3872 1.29333 74.7339 1.08C75.0806 0.866665 75.4539 0.759999 75.8539 0.759999C76.5472 0.759999 77.0939 1.05333 77.4939 1.64C77.9206 2.2 77.9872 2.86667 77.6939 3.64L65.6539 33.76C65.4939 34.1867 65.2272 34.4933 64.8539 34.68C64.5072 34.8667 64.1472 34.96 63.7739 34.96ZM83.6039 28.76C83.1772 29.0267 82.7239 29.12 82.2439 29.04C81.7639 28.9333 81.3506 28.7067 81.0039 28.36C80.6839 27.9867 80.5239 27.5333 80.5239 27C80.5239 26.2533 80.8572 25.6667 81.5239 25.24L95.0039 17.16V18.88L81.5239 10.88C80.8572 10.48 80.5239 9.88 80.5239 9.08C80.5239 8.30666 80.8572 7.74667 81.5239 7.4C82.1906 7.02667 82.8839 7.02667 83.6039 7.4L98.3639 16.28C99.0839 16.7867 99.4439 17.3867 99.4439 18.08C99.4439 18.8533 99.0839 19.4667 98.3639 19.92L83.6039 28.76Z" fill="#FF674D"/>
<path d="M16.4811 28.76L16.7461 28.3359L16.738 28.331L16.4811 28.76ZM1.72109 19.92L1.45462 20.3432L1.46419 20.349L1.72109 19.92ZM1.72109 16.28L1.46333 15.8516L1.44799 15.8608L1.43335 15.8711L1.72109 16.28ZM16.4811 7.4L16.2509 6.95612L16.2369 6.9634L16.2233 6.97156L16.4811 7.4ZM18.5611 7.4L18.3168 7.83625L18.3235 7.84004L18.3304 7.84361L18.5611 7.4ZM18.5611 10.88L18.8163 11.31L18.8183 11.3087L18.5611 10.88ZM5.08109 18.88H4.58109V19.7582L5.33627 19.31L5.08109 18.88ZM5.08109 17.16L5.33815 16.7311L4.58109 16.2774V17.16H5.08109ZM18.5611 25.24L18.8306 24.8189L18.8244 24.8149L18.8182 24.8111L18.5611 25.24ZM19.0411 28.36L18.6747 28.0198L18.6737 28.0209L19.0411 28.36ZM17.8411 29.04L17.9233 29.5332L17.9365 29.531L17.9496 29.5281L17.8411 29.04ZM16.738 28.331L1.978 19.491L1.46419 20.349L16.2242 29.1889L16.738 28.331ZM1.9875 19.4969C1.39551 19.1241 1.14109 18.662 1.14109 18.08H0.141094C0.141094 19.0447 0.606675 19.8092 1.45469 20.3431L1.9875 19.4969ZM1.14109 18.08C1.14109 17.5929 1.38184 17.1301 2.00884 16.6889L1.43335 15.8711C0.620352 16.4432 0.141094 17.1804 0.141094 18.08H1.14109ZM1.97885 16.7084L16.7389 7.82844L16.2233 6.97156L1.46333 15.8516L1.97885 16.7084ZM16.7113 7.84388C17.2929 7.54231 17.8074 7.55098 18.3168 7.83625L18.8054 6.96375C17.9815 6.50235 17.1093 6.51103 16.2509 6.95612L16.7113 7.84388ZM18.3304 7.84361C18.5941 7.98073 18.7693 8.14726 18.8814 8.33574C18.9941 8.52503 19.0611 8.76643 19.0611 9.08H20.0611C20.0611 8.62023 19.9614 8.19497 19.7407 7.82426C19.5196 7.45274 19.1947 7.16593 18.7918 6.95639L18.3304 7.84361ZM19.0611 9.08C19.0611 9.71061 18.8146 10.1448 18.3038 10.4513L18.8183 11.3087C19.6409 10.8152 20.0611 10.0494 20.0611 9.08H19.0611ZM18.3059 10.45L4.82591 18.45L5.33627 19.31L18.8163 11.31L18.3059 10.45ZM5.58109 18.88V17.16H4.58109V18.88H5.58109ZM4.82403 17.5889L18.304 25.6689L18.8182 24.8111L5.33815 16.7311L4.82403 17.5889ZM18.2916 25.6611C18.825 26.0025 19.0611 26.4358 19.0611 27H20.0611C20.0611 26.0709 19.6305 25.3308 18.8306 24.8189L18.2916 25.6611ZM19.0611 27C19.0611 27.4136 18.9312 27.7436 18.6747 28.0198L19.4075 28.7002C19.8444 28.2297 20.0611 27.653 20.0611 27H19.0611ZM18.6737 28.0209C18.4258 28.2894 18.1176 28.4664 17.7326 28.5519L17.9496 29.5281C18.5246 29.4003 19.0163 29.124 19.4085 28.6991L18.6737 28.0209ZM17.7589 28.5468C17.4036 28.606 17.0732 28.5404 16.7461 28.336L16.2161 29.184C16.7423 29.5129 17.3186 29.634 17.9233 29.5332L17.7589 28.5468ZM30.0361 31.6L30.1991 31.1273L30.0361 31.6ZM25.9961 29.36L25.6751 29.7434L25.9961 29.36ZM23.4761 26.04L23.9362 25.8442L23.932 25.8345L23.9275 25.825L23.4761 26.04ZM23.4761 24.48L23.0495 24.2193L23.044 24.2281L23.039 24.2372L23.4761 24.48ZM24.9161 23.56L25.0142 24.0504L25.0246 24.0481L24.9161 23.56ZM26.3161 23.8L26.0626 24.231L26.0773 24.2396L26.0925 24.2472L26.3161 23.8ZM27.3961 24.92L26.9442 25.134L26.9453 25.1364L27.3961 24.92ZM28.9561 26.76L28.6491 27.1547L28.6561 27.16L28.9561 26.76ZM31.6361 28.12L31.478 28.5943L31.6361 28.12ZM38.4361 28.04L38.2643 27.5704L38.2605 27.5718L38.4361 28.04ZM41.0761 26.32L41.4491 26.6531L41.4548 26.6465L41.0761 26.32ZM40.3961 19.68L40.0383 20.0293L40.0425 20.0336L40.3961 19.68ZM34.9561 17.6L35.0084 17.1027L35.0043 17.1023L34.9561 17.6ZM27.1561 14.68L27.4819 14.3007V14.3007L27.1561 14.68ZM29.7961 1.36L29.6205 0.891828L29.6181 0.892755L29.7961 1.36ZM39.7161 1.08L39.5394 1.54775L39.5428 1.54899L39.7161 1.08ZM42.9161 2.96L42.5853 3.33492L42.9161 2.96ZM45.2761 5.8L44.8491 6.06035L44.8543 6.06844L45.2761 5.8ZM45.7161 7.48L45.2216 7.40583L45.22 7.41671L45.2188 7.42766L45.7161 7.48ZM44.9561 8.68L45.2231 9.10277L45.2277 9.09978L44.9561 8.68ZM43.3161 8.88L43.1645 9.35646L43.3161 8.88ZM41.9961 7.84L41.5582 8.08159L41.5634 8.09052L41.9961 7.84ZM40.4361 5.88L40.7642 5.5027H40.7642L40.4361 5.88ZM38.2761 4.64L38.0956 5.10628L38.1022 5.10884L38.1089 5.11121L38.2761 4.64ZM35.3561 4.16L35.3493 4.66H35.3561V4.16ZM30.3961 5.28L30.6404 5.7163L30.647 5.71251L30.3961 5.28ZM28.9961 11.08L28.5554 11.3161L28.5604 11.3256L28.5659 11.3349L28.9961 11.08ZM31.2761 12.96L31.0569 13.4094L31.0611 13.4114L31.2761 12.96ZM36.0761 14.08L36.0251 14.5774L36.0259 14.5775L36.0761 14.08ZM43.4761 17L43.1367 17.3672L43.1425 17.3725L43.4761 17ZM45.1961 27.32L44.7619 27.0719L44.7575 27.0798L45.1961 27.32ZM42.6761 30.16L42.9677 30.5662L42.9696 30.5648L42.6761 30.16ZM39.0761 31.84L38.9437 31.3578L38.9413 31.3585L39.0761 31.84ZM34.9161 31.9C33.2625 31.9 31.6911 31.6418 30.1991 31.1273L29.8731 32.0727C31.4744 32.6249 33.1564 32.9 34.9161 32.9V31.9ZM30.1991 31.1273C28.7047 30.612 27.4128 29.8939 26.3171 28.9766L25.6751 29.7434C26.8728 30.7461 28.2742 31.5213 29.8731 32.0727L30.1991 31.1273ZM26.3171 28.9766C25.2249 28.0622 24.4357 27.018 23.9362 25.8442L23.016 26.2358C23.5832 27.5687 24.474 28.7378 25.6751 29.7434L26.3171 28.9766ZM23.9275 25.825C23.7199 25.3891 23.7361 25.0416 23.9132 24.7228L23.039 24.2372C22.6828 24.8784 22.6989 25.5709 23.0247 26.255L23.9275 25.825ZM23.9027 24.7407C24.1084 24.4041 24.4534 24.1624 25.0142 24.0503L24.818 23.0697C24.0455 23.2242 23.4304 23.5959 23.0495 24.2193L23.9027 24.7407ZM25.0246 24.0481C25.3719 23.9709 25.71 24.0236 26.0626 24.231L26.5696 23.369C26.0155 23.0431 25.4203 22.9358 24.8076 23.0719L25.0246 24.0481ZM26.0925 24.2472C26.4678 24.4348 26.7498 24.7236 26.9442 25.134L27.848 24.706C27.5624 24.1031 27.1244 23.6451 26.5397 23.3528L26.0925 24.2472ZM26.9453 25.1364C27.3057 25.8872 27.882 26.558 28.6491 27.1547L29.2631 26.3653C28.5902 25.842 28.1265 25.2861 27.8469 24.7036L26.9453 25.1364ZM28.6561 27.16C29.4525 27.7573 30.3957 28.2336 31.478 28.5943L31.7942 27.6457C30.7965 27.3131 29.953 26.8827 29.2561 26.36L28.6561 27.16ZM31.478 28.5943C32.5713 28.9588 33.7182 29.14 34.9161 29.14V28.14C33.8207 28.14 32.7809 27.9746 31.7942 27.6457L31.478 28.5943ZM34.9161 29.14C36.2487 29.14 37.4823 28.9317 38.6117 28.5082L38.2605 27.5718C37.2565 27.9483 36.1435 28.14 34.9161 28.14V29.14ZM38.6079 28.5096C39.7658 28.0859 40.7193 27.4704 41.4491 26.653L40.7031 25.987C40.0996 26.663 39.293 27.1941 38.2643 27.5704L38.6079 28.5096ZM41.4548 26.6465C42.2075 25.7733 42.5761 24.7073 42.5761 23.48H41.5761C41.5761 24.4927 41.278 25.32 40.6974 25.9935L41.4548 26.6465ZM42.5761 23.48C42.5761 21.9175 41.951 20.5278 40.7496 19.3264L40.0425 20.0336C41.0811 21.0722 41.5761 22.2158 41.5761 23.48H42.5761ZM40.7539 19.3307C39.5417 18.0889 37.59 17.3745 35.0084 17.1027L34.9038 18.0973C37.3889 18.3588 39.0639 19.0311 40.0383 20.0293L40.7539 19.3307ZM35.0043 17.1023C31.7667 16.789 29.275 15.8413 27.4819 14.3007L26.8303 15.0592C28.8239 16.7721 31.5322 17.771 34.9079 18.0977L35.0043 17.1023ZM27.4819 14.3007C25.6941 12.7647 24.8161 10.8877 24.8161 8.64H23.8161C23.8161 11.1923 24.8314 13.3419 26.8303 15.0592L27.4819 14.3007ZM24.8161 8.64C24.8161 6.97973 25.2789 5.60072 26.1857 4.47338L25.4065 3.84662C24.3399 5.17261 23.8161 6.78026 23.8161 8.64H24.8161ZM26.1857 4.47338C27.1092 3.32522 28.3651 2.44021 29.9741 1.82724L29.6181 0.892755C27.8671 1.55979 26.4563 2.54144 25.4065 3.84662L26.1857 4.47338ZM29.9717 1.82816C31.6148 1.21197 33.4477 0.899999 35.4761 0.899999V-0.100001C33.3445 -0.100001 31.3907 0.228033 29.6205 0.891834L29.9717 1.82816ZM35.4761 0.899999C37.0579 0.899999 38.4087 1.1206 39.5394 1.54773L39.8928 0.612261C38.6235 0.132734 37.1476 -0.100001 35.4761 -0.100001V0.899999ZM39.5428 1.54899C40.7163 1.9827 41.7285 2.57894 42.5853 3.33492L43.2469 2.58508C42.2903 1.74106 41.1692 1.08396 39.8894 0.611L39.5428 1.54899ZM42.5853 3.33492C43.4522 4.09984 44.2071 5.00724 44.8492 6.0603L45.703 5.53969C45.0118 4.40609 44.1933 3.42016 43.2469 2.58508L42.5853 3.33492ZM44.8543 6.06844C45.1821 6.58353 45.2791 7.02285 45.2216 7.40583L46.2106 7.55417C46.3131 6.87048 46.1168 6.1898 45.6979 5.53156L44.8543 6.06844ZM45.2188 7.42766C45.1824 7.77398 45.0197 8.04332 44.6845 8.26021L45.2277 9.09978C45.7992 8.73001 46.1431 8.19934 46.2133 7.53234L45.2188 7.42766ZM44.6891 8.25725C44.3111 8.496 43.9182 8.54687 43.4677 8.40354L43.1645 9.35646C43.8874 9.58646 44.5878 9.50399 45.2231 9.10275L44.6891 8.25725ZM43.4677 8.40354C42.9929 8.25246 42.6564 7.98255 42.4288 7.58948L41.5634 8.09052C41.9225 8.71078 42.466 9.13421 43.1645 9.35646L43.4677 8.40354ZM42.4339 7.59846C41.9813 6.77825 41.4254 6.07771 40.7642 5.5027L40.108 6.2573C40.6734 6.74896 41.1575 7.35509 41.5583 8.08154L42.4339 7.59846ZM40.7642 5.5027C40.1 4.9251 39.3243 4.4814 38.4433 4.16879L38.1089 5.11121C38.8812 5.38527 39.5456 5.76823 40.108 6.2573L40.7642 5.5027ZM38.4566 4.17372C37.5594 3.82642 36.5222 3.66 35.3561 3.66V4.66C36.43 4.66 37.3394 4.81358 38.0956 5.10628L38.4566 4.17372ZM35.3629 3.66004C33.324 3.63249 31.5758 4.01774 30.1452 4.84748L30.647 5.71251C31.883 4.99559 33.4415 4.63417 35.3493 4.65995L35.3629 3.66004ZM30.1518 4.84375C29.4177 5.25482 28.847 5.79192 28.4626 6.46086C28.0786 7.12905 27.8961 7.90139 27.8961 8.76H28.8961C28.8961 8.04528 29.047 7.45095 29.3296 6.95914C29.6118 6.46808 30.0411 6.05185 30.6404 5.71625L30.1518 4.84375ZM27.8961 8.76C27.8961 9.64724 28.1188 10.5012 28.5554 11.3161L29.4368 10.8439C29.0734 10.1654 28.8961 9.47276 28.8961 8.76H27.8961ZM28.5659 11.3349C29.0602 12.169 29.9135 12.8516 31.0569 13.4094L31.4953 12.5106C30.452 12.0017 29.7853 11.431 29.4262 10.8251L28.5659 11.3349ZM31.0611 13.4114C32.2562 13.9805 33.9216 14.3617 36.0251 14.5774L36.1271 13.5826C34.0705 13.3717 32.536 13.0061 31.4911 12.5086L31.0611 13.4114ZM36.0259 14.5775C39.1268 14.8902 41.4792 15.8352 43.1367 17.3672L43.8155 16.6328C41.953 14.9115 39.3721 13.9098 36.1263 13.5825L36.0259 14.5775ZM43.1425 17.3725C44.8119 18.8674 45.6561 20.8462 45.6561 23.36H46.6561C46.6561 20.5938 45.7136 18.3326 43.8097 16.6275L43.1425 17.3725ZM45.6561 23.36C45.6561 24.8086 45.3517 26.04 44.762 27.0719L45.6302 27.5681C46.3205 26.36 46.6561 24.9514 46.6561 23.36H45.6561ZM44.7575 27.0798C44.1809 28.1328 43.3913 29.0239 42.3826 29.7552L42.9696 30.5648C44.0942 29.7494 44.9846 28.7472 45.6346 27.5602L44.7575 27.0798ZM42.3845 29.7538C41.3973 30.4626 40.2524 30.9986 38.9437 31.3578L39.2085 32.3222C40.6198 31.9347 41.8749 31.3507 42.9677 30.5662L42.3845 29.7538ZM38.9413 31.3585C37.6536 31.7191 36.3124 31.9 34.9161 31.9V32.9C36.3998 32.9 37.832 32.7076 39.2109 32.3215L38.9413 31.3585ZM62.0539 34.04L61.632 34.3085L61.6351 34.3131L62.0539 34.04ZM61.9339 32.08L62.397 32.2687L62.3982 32.2656L61.9339 32.08ZM73.9739 1.96L73.5142 1.76298L73.5096 1.77441L73.9739 1.96ZM74.7339 1.08L74.4719 0.654168L74.4719 0.654169L74.7339 1.08ZM77.4939 1.64L77.0808 1.92167L77.0882 1.93255L77.0962 1.94302L77.4939 1.64ZM77.6939 3.64L78.1583 3.82562L78.1614 3.81733L77.6939 3.64ZM65.6539 33.76L65.1895 33.5744L65.1857 33.5844L65.6539 33.76ZM64.8539 34.68L64.6303 34.2328L64.6235 34.2362L64.6169 34.2398L64.8539 34.68ZM63.7739 34.46C63.1922 34.46 62.7782 34.2353 62.4727 33.7669L61.6351 34.3131C62.1296 35.0713 62.8623 35.46 63.7739 35.46V34.46ZM62.4757 33.7716C62.2007 33.3393 62.1564 32.8592 62.397 32.2687L61.4709 31.8913C61.1248 32.7408 61.1605 33.5674 61.6321 34.3084L62.4757 33.7716ZM62.3982 32.2656L74.4382 2.14559L73.5096 1.77441L61.4696 31.8944L62.3982 32.2656ZM74.4335 2.15696C74.5527 1.87869 74.737 1.66521 74.996 1.50583L74.4719 0.654169C74.0375 0.921457 73.7151 1.29464 73.5143 1.76304L74.4335 2.15696ZM74.996 1.50583C75.2653 1.34009 75.5481 1.26 75.8539 1.26V0.259999C75.3597 0.259999 74.8959 0.393243 74.4719 0.654168L74.996 1.50583ZM75.8539 1.26C76.3772 1.26 76.7712 1.46766 77.0808 1.92167L77.907 1.35833C77.4166 0.639007 76.7173 0.259999 75.8539 0.259999V1.26ZM77.0962 1.94302C77.3985 2.33974 77.4711 2.8177 77.2264 3.46267L78.1614 3.81733C78.5034 2.91563 78.4427 2.06026 77.8916 1.33698L77.0962 1.94302ZM77.2296 3.45441L65.1896 33.5744L66.1182 33.9456L78.1582 3.82559L77.2296 3.45441ZM65.1857 33.5844C65.0656 33.9047 64.88 34.108 64.6303 34.2328L65.0775 35.1272C65.5745 34.8787 65.9222 34.4686 66.1221 33.9356L65.1857 33.5844ZM64.6169 34.2398C64.3389 34.3894 64.0599 34.46 63.7739 34.46V35.46C64.2345 35.46 64.6755 35.3439 65.091 35.1202L64.6169 34.2398ZM83.6039 28.76L83.347 28.331L83.3389 28.336L83.6039 28.76ZM82.2439 29.04L82.1354 29.5281L82.1485 29.531L82.1617 29.5332L82.2439 29.04ZM81.0039 28.36L80.6243 28.6854L80.6368 28.7L80.6504 28.7136L81.0039 28.36ZM81.5239 25.24L81.2668 24.8111L81.2606 24.8149L81.2544 24.8189L81.5239 25.24ZM95.0039 17.16H95.5039V16.2774L94.7468 16.7311L95.0039 17.16ZM95.0039 18.88L94.7487 19.31L95.5039 19.7582V18.88H95.0039ZM81.5239 10.88L81.2667 11.3088L81.2687 11.31L81.5239 10.88ZM81.5239 7.4L81.7546 7.84361L81.7615 7.84004L81.7682 7.83625L81.5239 7.4ZM83.6039 7.4L83.8617 6.97156L83.8481 6.9634L83.8341 6.95612L83.6039 7.4ZM98.3639 16.28L98.6517 15.8711L98.637 15.8608L98.6217 15.8516L98.3639 16.28ZM98.3639 19.92L98.6209 20.3491L98.6303 20.3431L98.3639 19.92ZM83.3389 28.336C83.0118 28.5404 82.6814 28.606 82.3261 28.5468L82.1617 29.5332C82.7664 29.634 83.3427 29.5129 83.8689 29.184L83.3389 28.336ZM82.3524 28.5519C81.9649 28.4658 81.6367 28.2857 81.3575 28.0064L80.6504 28.7136C81.0645 29.1277 81.5629 29.4009 82.1354 29.5281L82.3524 28.5519ZM81.3835 28.0346C81.148 27.7598 81.0239 27.4249 81.0239 27H80.0239C80.0239 27.6418 80.2198 28.2135 80.6243 28.6854L81.3835 28.0346ZM81.0239 27C81.0239 26.4358 81.26 26.0025 81.7934 25.6611L81.2544 24.8189C80.4545 25.3308 80.0239 26.0709 80.0239 27H81.0239ZM81.781 25.6689L95.261 17.5889L94.7468 16.7311L81.2668 24.8111L81.781 25.6689ZM94.5039 17.16V18.88H95.5039V17.16H94.5039ZM95.2591 18.45L81.7791 10.45L81.2687 11.31L94.7487 19.31L95.2591 18.45ZM81.7812 10.4513C81.2704 10.1448 81.0239 9.71061 81.0239 9.08H80.0239C80.0239 10.0494 80.4441 10.8152 81.2667 11.3087L81.7812 10.4513ZM81.0239 9.08C81.0239 8.76643 81.0909 8.52503 81.2036 8.33574C81.3157 8.14726 81.4909 7.98073 81.7546 7.84361L81.2932 6.95639C80.8903 7.16593 80.5654 7.45274 80.3443 7.82426C80.1236 8.19497 80.0239 8.62023 80.0239 9.08H81.0239ZM81.7682 7.83625C82.2776 7.55098 82.7921 7.54231 83.3737 7.84388L83.8341 6.95612C82.9757 6.51103 82.1035 6.50235 81.2796 6.96375L81.7682 7.83625ZM83.3461 7.82844L98.1061 16.7084L98.6217 15.8516L83.8617 6.97156L83.3461 7.82844ZM98.0762 16.6889C98.7032 17.1301 98.9439 17.5929 98.9439 18.08H99.9439C99.9439 17.1804 99.4646 16.4432 98.6517 15.8711L98.0762 16.6889ZM98.9439 18.08C98.9439 18.662 98.6895 19.1241 98.0975 19.4969L98.6303 20.3431C99.4783 19.8092 99.9439 19.0447 99.9439 18.08H98.9439ZM98.107 19.491L83.347 28.331L83.8608 29.1889L98.6208 20.349L98.107 19.491Z" fill="#FF674D"/>
</svg>
