<svg width="20" height="20" viewBox="0 0 20 20" fill="none" xmlns="http://www.w3.org/2000/svg">
<path d="M16.3359 6.92187C16.125 6.85156 15.9141 6.78516 15.7031 6.72266C15.7383 6.57812 15.7695 6.43359 15.8008 6.28906C16.2812 3.96094 15.9648 2.08984 14.8984 1.47266C13.8711 0.882812 12.1953 1.49609 10.5 2.97266C10.332 3.11719 10.168 3.26953 10.0117 3.42187C9.90625 3.32031 9.79688 3.21875 9.6875 3.12109C7.91016 1.54297 6.12891 0.878906 5.0625 1.5C4.03906 2.09375 3.73438 3.85547 4.16406 6.05859C4.20703 6.27734 4.25391 6.49219 4.30859 6.71094C4.05859 6.78125 3.8125 6.85937 3.58203 6.94141C1.49609 7.66406 0 8.80469 0 9.98438C0 11.2031 1.59375 12.4258 3.76172 13.168C3.9375 13.2266 4.11328 13.2852 4.29297 13.3359C4.23438 13.5703 4.18359 13.8008 4.13672 14.0391C3.72656 16.207 4.04688 17.9258 5.07031 18.5156C6.125 19.125 7.89844 18.5 9.625 16.9883C9.76172 16.8672 9.89844 16.7422 10.0352 16.6094C10.207 16.7773 10.3867 16.9375 10.5664 17.0938C12.2383 18.5312 13.8906 19.1133 14.9102 18.5234C15.9648 17.9141 16.3086 16.0664 15.8633 13.8164C15.8281 13.6445 15.7891 13.4688 15.7461 13.2891C15.8711 13.2539 15.9922 13.2148 16.1133 13.1758C18.3672 12.4297 20 11.2227 20 9.98438C20 8.80078 18.4609 7.65234 16.3359 6.92187ZM11.0508 3.60547C12.5039 2.33984 13.8594 1.84375 14.4766 2.19922C15.1367 2.57812 15.3906 4.10937 14.9766 6.12109C14.9492 6.25391 14.9219 6.38281 14.8867 6.51172C14.0195 6.31641 13.1406 6.17578 12.2578 6.09766C11.75 5.37109 11.1953 4.67578 10.5938 4.02344C10.7461 3.87891 10.8945 3.74219 11.0508 3.60547ZM6.53125 12.0117C6.73047 12.3516 6.93359 12.6914 7.14844 13.0234C6.53906 12.957 5.93359 12.8594 5.33594 12.7305C5.50781 12.168 5.72266 11.5859 5.97266 10.9922C6.15234 11.3359 6.33594 11.6758 6.53125 12.0117ZM5.34766 7.3125C5.91016 7.1875 6.50781 7.08594 7.12891 7.00781C6.92188 7.33203 6.71875 7.66406 6.52734 8C6.33594 8.33203 6.14844 8.67187 5.97266 9.01562C5.72656 8.43359 5.51953 7.86328 5.34766 7.3125ZM6.41797 10.0039C6.67578 9.46484 6.95703 8.9375 7.25391 8.41797C7.55078 7.89844 7.87109 7.39453 8.20703 6.89844C8.79297 6.85547 9.39062 6.83203 10 6.83203C10.6094 6.83203 11.2109 6.85547 11.793 6.89844C12.125 7.39062 12.4414 7.89453 12.7422 8.41016C13.043 8.92578 13.3242 9.45312 13.5898 9.98828C13.3281 10.5273 13.0469 11.0586 12.7461 11.582C12.4492 12.1016 12.1328 12.6055 11.8008 13.1055C11.2188 13.1484 10.6133 13.168 10 13.168C9.38672 13.168 8.79297 13.1484 8.21875 13.1133C7.87891 12.6172 7.55859 12.1094 7.25781 11.5898C6.95703 11.0703 6.67969 10.543 6.41797 10.0039ZM13.4727 12.0039C13.6719 11.6602 13.8594 11.3125 14.043 10.9609C14.293 11.5273 14.5117 12.1016 14.7031 12.6914C14.0977 12.8281 13.4844 12.9336 12.8672 13.0039C13.0781 12.6758 13.2773 12.3398 13.4727 12.0039ZM14.0352 9.01562C13.8516 8.67187 13.6641 8.32812 13.4688 7.99219C13.2773 7.66016 13.0781 7.33203 12.8711 7.00781C13.5 7.08594 14.1016 7.19141 14.6641 7.32031C14.4844 7.89844 14.2734 8.46094 14.0352 9.01562ZM10.0078 4.62109C10.418 5.06641 10.8047 5.53516 11.1641 6.01953C10.3906 5.98438 9.61328 5.98438 8.83984 6.01953C9.22266 5.51562 9.61719 5.04688 10.0078 4.62109ZM5.47656 2.22656C6.13281 1.84375 7.58984 2.39062 9.125 3.75C9.22266 3.83594 9.32031 3.92969 9.42188 4.02344C8.81641 4.67578 8.25781 5.37109 7.74609 6.09766C6.86328 6.17578 5.98828 6.3125 5.12109 6.50391C5.07031 6.30469 5.02734 6.10156 4.98438 5.89844C4.61719 4.00781 4.85938 2.58203 5.47656 2.22656ZM4.51953 12.5234C4.35547 12.4766 4.19531 12.4258 4.03516 12.3711C3.20313 12.1094 2.25781 11.6953 1.57422 11.1523C1.17969 10.8789 0.914062 10.457 0.839844 9.98438C0.839844 9.26953 2.07422 8.35547 3.85547 7.73437C4.07812 7.65625 4.30469 7.58594 4.53125 7.51953C4.79688 8.36719 5.11719 9.19922 5.48828 10.0039C5.11328 10.8203 4.78906 11.6641 4.51953 12.5234ZM9.07422 16.3516C8.42969 16.9414 7.68359 17.4102 6.87109 17.7305C6.4375 17.9375 5.9375 17.957 5.49219 17.7812C4.87109 17.4219 4.61328 16.043 4.96484 14.1875C5.00781 13.9688 5.05469 13.75 5.10938 13.5352C5.98438 13.7227 6.86719 13.8516 7.76172 13.918C8.27734 14.6484 8.84375 15.3477 9.44922 16.0039C9.32422 16.125 9.19922 16.2422 9.07422 16.3516ZM10.0312 15.4023C9.63281 14.9727 9.23438 14.4961 8.84766 13.9844C9.22266 14 9.60938 14.0078 10 14.0078C10.4023 14.0078 10.7969 14 11.1875 13.9805C10.8281 14.4766 10.4414 14.9492 10.0312 15.4023ZM15.1367 16.5742C15.1016 17.0508 14.8672 17.4961 14.4922 17.7969C13.8711 18.1562 12.5469 17.6875 11.1172 16.4609C10.9531 16.3203 10.7891 16.168 10.6211 16.0117C11.2188 15.3516 11.7695 14.6523 12.2695 13.918C13.1641 13.8437 14.0547 13.707 14.9336 13.5078C14.9727 13.668 15.0078 13.8281 15.0391 13.9844C15.2305 14.8281 15.2617 15.707 15.1367 16.5742ZM15.8477 12.375C15.7383 12.4102 15.6289 12.4453 15.5156 12.4766C15.2422 11.625 14.9062 10.793 14.5195 9.98438C14.8945 9.1875 15.2109 8.36719 15.4766 7.52734C15.6797 7.58594 15.875 7.64844 16.0625 7.71094C17.8828 8.33594 19.1602 9.26562 19.1602 9.97656C19.1602 10.7422 17.7969 11.7305 15.8477 12.375ZM10 11.7891C10.9883 11.7891 11.7891 10.9883 11.7891 10C11.7891 9.01172 10.9883 8.21094 10 8.21094C9.01172 8.21094 8.21094 9.01172 8.21094 10C8.21094 10.9883 9.01172 11.7891 10 11.7891Z" fill="white"/>
</svg>
