<svg width="20" height="20" viewBox="0 0 20 20" fill="none" xmlns="http://www.w3.org/2000/svg">
<path d="M16.5382 0L16.394 0.746468C16.1711 2.16113 16.2518 2.56586 16.863 3.09087L17.4531 3.57579L16.8419 6.28293C16.4767 7.89805 16.0288 9.25162 15.7444 9.69645C15.5002 10.0802 15.2158 10.6453 15.1543 10.9488C15.0524 11.3116 14.7064 11.6762 14.1778 11.9989C13.7107 12.2623 12.7938 12.9687 12.1442 13.5357C11.6252 13.9996 11.2677 14.2841 11.0735 14.4063L10.4392 14.9045C10.2355 15.2291 10.1201 15.4906 10.0759 15.6892C10.0317 15.8935 10.0567 16.029 10.1221 16.1283C10.1855 16.2237 10.295 16.2906 10.445 16.3326C10.6225 16.3739 10.8052 16.3887 10.987 16.3765C11.3985 16.3486 11.8058 16.2769 12.2018 16.1627C12.3364 16.1264 12.4421 16.092 12.5344 16.0615C12.6766 15.8877 13.0053 15.5594 13.5877 14.9885C15.1331 13.4746 15.7232 12.646 15.1139 12.8694C14.889 12.9496 14.9909 12.7472 15.3772 12.3425C16.1922 11.554 16.6593 10.3627 17.6358 6.62657C18.4085 3.67698 18.4085 3.63498 18.9774 3.63498C19.2446 3.63498 20 3.68079 20 3.68079V0H18.2662H16.5382ZM9.69149 6.30966C9.13023 6.30584 7.92311 7.1554 4.30947 10.0859C4.15377 10.4544 4.14032 10.7083 4.21144 10.8725C4.25757 10.9851 4.34214 11.0634 4.4594 11.1207C4.57472 11.1779 4.72465 11.2123 4.88996 11.2257C5.21864 11.2543 5.60692 11.2027 5.92023 11.1417L6.13167 11.0939C6.20404 10.9975 6.29907 10.9202 6.40846 10.8687C6.63143 10.7465 7.56752 9.89882 8.5036 8.99007C10.1509 7.33295 10.5372 6.58457 9.86641 6.34211C9.81138 6.32037 9.75072 6.30935 9.69149 6.30966ZM13.9125 7.46086C13.4185 7.47423 12.5286 8.04315 11.0043 9.25162C10.2393 9.86827 9.75492 10.2005 9.49543 10.2692L8.48823 11.0596C8.10956 11.7469 8.05382 12.1726 8.15377 12.4074C8.17879 12.4653 8.21511 12.5178 8.26064 12.5617C8.30616 12.6056 8.36 12.6401 8.41903 12.6632C8.56588 12.7208 8.72246 12.75 8.88035 12.7491C9.25762 12.7451 9.63263 12.6906 9.9952 12.5869C10.1842 12.5365 10.3708 12.4779 10.5545 12.4112L10.6103 12.3883L10.7122 12.3349C10.9044 12.0886 11.3465 11.6247 11.9 11.0901C13.6492 9.4139 14.543 8.2226 14.3604 7.77778C14.2778 7.56205 14.1355 7.45323 13.9125 7.46086ZM9.25325 9.52272C9.11101 9.53799 8.79193 9.78236 8.2172 10.2825C7.38683 11.0118 6.4815 11.4318 6.16819 11.2447C6.09538 11.2611 6.02233 11.2764 5.94906 11.2906C5.62998 11.3536 5.2321 11.4051 4.8765 11.3765C4.70895 11.3664 4.54473 11.3256 4.39212 11.2562C4.24817 11.1908 4.1333 11.0754 4.0692 10.9317C3.99808 10.7598 3.99808 10.546 4.07881 10.273L2.82941 11.2925L0.00192132 13.6159V17.3826L9.2667 10.1336C9.2649 10.0543 9.27527 9.97509 9.29745 9.89881C9.36857 9.64299 9.36473 9.51317 9.25325 9.52463V9.52272ZM13.2398 10.7426C13.0995 10.7426 12.865 10.9393 12.4901 11.3345C11.9808 11.8748 11.1792 12.3979 10.7544 12.5048L10.6891 12.5391C10.6193 12.5677 10.5488 12.5945 10.4777 12.6193C10.3623 12.6575 10.2124 12.7033 10.0394 12.7491C9.69342 12.8427 9.26285 12.9286 8.87842 12.9191C8.69719 12.9188 8.5177 12.8838 8.34983 12.816C8.19161 12.7512 8.06483 12.628 7.99616 12.4723C7.88467 12.2069 7.92888 11.8347 8.17299 11.3058L0 17.6995V20H3.59058L11.2062 14.0588C11.4041 13.8412 11.7021 13.5433 12.1038 13.1711C13.1802 12.1802 13.4243 11.8385 13.4243 11.3326C13.4243 10.9393 13.3801 10.7407 13.2398 10.7407V10.7426ZM15.0524 14.4654L14.4008 15.1107C14.0356 15.4544 13.3839 15.8782 12.938 16.0596L12.8496 16.0977L12.8438 16.1073L12.8246 16.1264C12.8073 16.1397 12.7996 16.1417 12.7862 16.1474C12.6081 16.2143 12.4273 16.2735 12.2441 16.3249C11.8368 16.4427 11.4179 16.5163 10.9947 16.5445C10.7946 16.5572 10.5937 16.5398 10.3988 16.4929C10.2297 16.456 10.0804 16.358 9.97982 16.218C9.88756 16.0767 9.86064 15.8877 9.91254 15.6548C9.95382 15.489 10.0151 15.3287 10.0951 15.1775L3.95002 20H12.123L13.0995 18.8889C14.4411 17.3349 15.0524 16.2237 15.0524 15.273V14.4654Z" fill="white"/>
</svg>
