<svg width="18" height="20" viewBox="0 0 18 20" fill="none" xmlns="http://www.w3.org/2000/svg">
<g clip-path="url(#clip0_1011_435)">
<path d="M15.3242 1.25H2.19143C0.980496 1.25 2.71267e-05 2.23047 2.71267e-05 3.4375C-0.00387912 3.4375 2.71267e-05 3.28125 2.71267e-05 16.5625C2.71267e-05 17.7695 0.980496 18.75 2.18753 18.75H15.3203C16.5235 18.7422 17.4961 17.7656 17.4961 16.5625V3.4375C17.5 2.23438 16.5274 1.25781 15.3242 1.25ZM7.69534 14.5039C7.68753 15.0781 7.22268 15.543 6.64456 15.543H3.41409C2.83596 15.5469 2.36331 15.082 2.3594 14.5039V4.57422C2.3594 3.99609 2.82815 3.52344 3.41018 3.52344H6.64846C7.22659 3.52344 7.69925 3.99219 7.69925 4.57422V14.5039H7.69534ZM15.2383 10.1289C15.2383 10.707 14.7696 11.1797 14.1875 11.1797H11.0235C10.4453 11.1797 9.97268 10.7109 9.97268 10.1289V4.57812C9.97268 4 10.4414 3.52734 11.0196 3.52734H14.1875C14.7657 3.52734 15.2383 3.99609 15.2383 4.57812V10.1289Z" fill="white"/>
</g>
<defs>
<clipPath id="clip0_1011_435">
<rect width="17.5" height="20" fill="white"/>
</clipPath>
</defs>
</svg>
